<?xml version="1.0" encoding="UTF-8"?>
<!DOCTYPE svg PUBLIC "-//W3C//DTD SVG 1.1//EN" "http://www.w3.org/Graphics/SVG/1.1/DTD/svg11.dtd">
<!-- Creator: CorelDRAW -->
<svg xmlns="http://www.w3.org/2000/svg" xml:space="preserve" width="91.4398mm" height="162.56mm" version="1.1" style="shape-rendering:geometricPrecision; text-rendering:geometricPrecision; image-rendering:optimizeQuality; fill-rule:evenodd; clip-rule:evenodd"
viewBox="0 0 9143.98 16255.98"
 xmlns:xlink="http://www.w3.org/1999/xlink"
 xmlns:xodm="http://www.corel.com/coreldraw/odm/2003">
 <defs>
  <style type="text/css">
   <![CDATA[
    .str1 {stroke:#2E3192;stroke-width:50;stroke-miterlimit:10}
    .str0 {stroke:#D4BC88;stroke-width:20;stroke-miterlimit:22.9256}
    .str3 {stroke:#D8BE85;stroke-width:75;stroke-linecap:round;stroke-linejoin:round;stroke-miterlimit:22.9256}
    .str2 {stroke:#D4BC88;stroke-width:75;stroke-linecap:round;stroke-linejoin:round;stroke-miterlimit:22.9256}
    .fil5 {fill:none}
    .fil0 {fill:#2E3192}
    .fil7 {fill:#3775B5}
    .fil2 {fill:#3775B5}
    .fil4 {fill:#D4BC88}
    .fil3 {fill:#2E3192;fill-rule:nonzero}
    .fil1 {fill:#3775B5;fill-rule:nonzero}
    .fil8 {fill:#D4BC88;fill-rule:nonzero}
    .fil6 {fill:#D4BC88;fill-rule:nonzero}
   ]]>
  </style>
   <clipPath id="id0">
    <path d="M4571.99 6011.32c1169,0 2116.67,947.67 2116.67,2116.67 0,1169 -947.67,2116.67 -2116.67,2116.67 -1169,0 -2116.67,-947.67 -2116.67,-2116.67 0,-1169 947.67,-2116.67 2116.67,-2116.67z"/>
   </clipPath>
    <clipPath id="id1">
     <path d="M5052.21 7391.62c646.7,0 1170.94,504.67 1170.94,1127.22 0,622.54 -524.24,1127.21 -1170.94,1127.21 -646.69,0 -1170.94,-504.67 -1170.94,-1127.21 0,-622.55 524.25,-1127.22 1170.94,-1127.22z"/>
    </clipPath>
    <clipPath id="id2">
     <path d="M4571.99 6011.32c1169,0 2116.67,947.67 2116.67,2116.67 0,1169 -947.67,2116.67 -2116.67,2116.67 -1169,0 -2116.67,-947.67 -2116.67,-2116.67 0,-1169 947.67,-2116.67 2116.67,-2116.67z"/>
    </clipPath>
 </defs>
 <g id="Capa_x0020_1">
  <metadata id="CorelCorpID_0Corel-Layer"/>
  <path class="fil0" d="M4571.99 6011.32c1169,0 2116.67,947.67 2116.67,2116.67 0,1169 -947.67,2116.67 -2116.67,2116.67 -1169,0 -2116.67,-947.67 -2116.67,-2116.67 0,-1169 947.67,-2116.67 2116.67,-2116.67z"/>
  <g style="clip-path:url(#id0)">
   <g id="_3165021088672">
    <path id="_1" class="fil1" d="M3336.91 8485.33c0,-893.65 728.39,-1618.12 1627.11,-1618.12 898.63,0 1627.47,724.47 1627.47,1618.12 0,158.46 -23.73,311.54 -66.23,456.37 105.62,-250.42 164.19,-525.19 164.19,-813.71 0,-1162.8 -948.01,-2105.48 -2117.49,-2105.48 -1169.49,0 -2117.43,942.68 -2117.43,2105.48 0,1162.96 947.94,2105.48 2117.43,2105.48 354,0 687.1,-86.85 980.38,-239.47 -182.24,70.63 -380.79,109.6 -588.32,109.6 -898.72,0 -1627.11,-724.54 -1627.11,-1618.27z"/>
    <path class="fil2" d="M5052.21 7391.62c646.7,0 1170.94,504.67 1170.94,1127.22 0,622.54 -524.24,1127.21 -1170.94,1127.21 -646.69,0 -1170.94,-504.67 -1170.94,-1127.21 0,-622.55 524.25,-1127.22 1170.94,-1127.22z"/>
   </g>
   <g style="clip-path:url(#id1)">
    <g>
     <g>
      <g>
       <path id="_1_0" class="fil3" d="M4798.98 9655.06c-10.84,14.91 -32.19,18.54 -47.68,8.11 -15.49,-10.43 -19.26,-31 -8.42,-45.91l56.1 37.8zm212.74 -1131.13l66.22 -16.78 8.93 34.79 7.79 34.89 6.65 34.98 5.5 35.06 4.37 35.15 3.21 35.24 2.06 35.31 0.93 35.39 -0.23 35.46 -1.37 35.54 -2.51 35.59 -3.65 35.68 -4.8 35.73 -5.94 35.79 -7.08 35.84 -8.21 35.91 -9.35 35.96 -10.48 36.02 -11.62 36.07 -12.75 36.11 -13.87 36.17 -15 36.22 -16.12 36.27 -17.24 36.32 -18.36 36.37 -19.49 36.42 -20.6 36.47 -21.72 36.53 -22.83 36.58 -23.95 36.63 -25.06 36.68 -26.17 36.74 -56.1 -37.8 25.43 -35.7 24.32 -35.6 23.21 -35.49 22.09 -35.4 20.98 -35.29 19.88 -35.19 18.77 -35.08 17.66 -34.99 16.56 -34.88 15.46 -34.77 14.36 -34.66 13.25 -34.57 12.17 -34.47 11.06 -34.35 9.96 -34.26 8.89 -34.16 7.79 -34.05 6.7 -33.96 5.62 -33.87 4.54 -33.75 3.45 -33.68 2.37 -33.59 1.29 -33.5 0.21 -33.42 -0.87 -33.33 -1.94 -33.25 -3.03 -33.18 -4.11 -33.11 -5.18 -33.04 -6.27 -32.98 -7.35 -32.91 -8.43 -32.85zm0 0c-4.81,-17.6 6.11,-35.63 24.39,-40.26 18.28,-4.63 37.02,5.88 41.83,23.48l-66.22 16.78z"/>
      </g>
      <g>
       <path class="fil3" d="M5171.18 9684.15c-8.61,16.2 -29.25,22.61 -46.08,14.32 -16.83,-8.29 -23.49,-28.16 -14.88,-44.36l60.96 30.04zm168.15 -715.67l68.36 3.8 -1.34 19.11 -1.74 19.33 -2.13 19.5 -2.53 19.72 -2.92 19.92 -3.31 20.11 -3.72 20.31 -4.09 20.5 -4.49 20.73 -4.88 20.92 -5.28 21.11 -5.66 21.31 -6.04 21.52 -6.44 21.73 -6.83 21.92 -7.21 22.13 -7.6 22.32 -7.98 22.54 -8.38 22.75 -8.76 22.94 -9.14 23.15 -9.54 23.36 -9.91 23.56 -10.31 23.77 -10.68 23.97 -11.08 24.18 -11.46 24.39 -11.84 24.6 -12.23 24.8 -12.61 25.01 -13 25.22 -13.38 25.44 -60.96 -30.04 13.12 -24.94 12.74 -24.72 12.35 -24.49 11.97 -24.28 11.58 -24.04 11.2 -23.83 10.8 -23.6 10.42 -23.37 10.03 -23.15 9.65 -22.92 9.26 -22.7 8.88 -22.47 8.5 -22.24 8.1 -22.01 7.72 -21.78 7.34 -21.56 6.95 -21.33 6.57 -21.1 6.18 -20.85 5.8 -20.64 5.42 -20.43 5.04 -20.17 4.66 -19.94 4.27 -19.71 3.89 -19.5 3.52 -19.25 3.13 -19.01 2.76 -18.78 2.37 -18.56 2.01 -18.32 1.62 -18.09 1.26 -17.85zm0 0c1.09,-18.17 17.29,-32.05 36.16,-31.01 18.87,1.04 33.29,16.64 32.2,34.81l-68.36 -3.8z"/>
      </g>
      <g>
       <path class="fil3" d="M5547.87 9591.69c-8.52,16.24 -29.13,22.76 -46,14.56 -16.87,-8.2 -23.64,-28.04 -15.12,-44.28l61.12 29.72zm45.64 -318.89l66.74 14.8 -2.51 10.27 -2.55 10.24 -2.64 10.2 -2.69 10.11 -2.76 10.09 -2.82 10.02 -2.89 10 -2.96 9.94 -3.02 9.87 -3.09 9.83 -3.14 9.78 -3.22 9.75 -3.29 9.68 -3.34 9.61 -3.41 9.58 -3.48 9.55 -3.55 9.48 -3.61 9.41 -3.66 9.38 -3.74 9.33 -3.82 9.29 -3.87 9.22 -3.94 9.18 -4 9.12 -4.07 9.07 -4.13 9.02 -4.2 8.98 -4.26 8.92 -4.33 8.87 -4.41 8.83 -4.45 8.75 -4.53 8.72 -61.12 -29.72 4.27 -8.24 4.23 -8.29 4.15 -8.33 4.09 -8.39 4.04 -8.44 3.98 -8.5 3.91 -8.54 3.85 -8.59 3.8 -8.66 3.74 -8.7 3.67 -8.74 3.6 -8.79 3.54 -8.85 3.5 -8.92 3.43 -8.97 3.37 -9 3.3 -9.05 3.25 -9.12 3.18 -9.17 3.13 -9.22 3.06 -9.25 3 -9.32 2.95 -9.39 2.88 -9.43 2.82 -9.46 2.75 -9.52 2.7 -9.6 2.64 -9.63 2.57 -9.69 2.52 -9.74 2.45 -9.78 2.39 -9.85zm0 0c4.24,-17.73 22.64,-28.8 41.06,-24.72 18.42,4.08 29.92,21.79 25.68,39.52l-66.74 -14.8z"/>
      </g>
      <g>
       <path class="fil3" d="M5240.58 8162.08c-16.56,-8.78 -22.59,-28.83 -13.47,-44.77 9.12,-15.94 29.95,-21.75 46.51,-12.97l-33.04 57.74zm310.73 329.76l-68 7.86 0.02 0.09 -1.84 -13.01 -2.19 -12.87 -2.54 -12.75 -2.89 -12.63 -3.24 -12.49 -3.59 -12.33 -3.94 -12.19 -4.3 -12.05 -4.66 -11.9 -5.01 -11.72 -5.39 -11.6 -5.75 -11.44 -6.11 -11.25 -6.49 -11.1 -6.86 -10.94 -7.24 -10.77 -7.62 -10.6 -8.01 -10.42 -8.39 -10.24 -8.8 -10.06 -9.19 -9.88 -9.6 -9.7 -9.99 -9.51 -10.4 -9.3 -10.84 -9.11 -11.24 -8.9 -11.69 -8.7 -12.11 -8.5 -12.54 -8.27 -12.98 -8.06 -13.43 -7.82 -13.88 -7.6 33.04 -57.74 15.5 8.48 15.05 8.78 14.6 9.06 14.16 9.33 13.71 9.62 13.27 9.88 12.82 10.16 12.38 10.41 11.94 10.68 11.49 10.91 11.04 11.16 10.61 11.4 10.16 11.64 9.73 11.86 9.27 12.08 8.84 12.28 8.4 12.49 7.96 12.68 7.53 12.88 7.09 13.07 6.65 13.24 6.23 13.4 5.81 13.58 5.36 13.72 4.96 13.87 4.54 14.03 4.11 14.15 3.7 14.29 3.29 14.39 2.9 14.51 2.49 14.65 2.08 14.73 0.02 0.09zm-0.02 -0.09c2.3,18.06 -11.04,34.51 -29.8,36.73 -18.76,2.22 -35.86,-10.63 -38.16,-28.69l67.96 -8.04zm-202.35 1166.52l-60.42 -31.02 14.94 -27.51 14.53 -27.85 14.1 -28.22 13.65 -28.59 13.18 -28.97 12.72 -29.38 12.21 -29.79 11.71 -30.24 11.19 -30.68 10.65 -31.14 10.09 -31.63 9.53 -32.13 8.93 -32.64 8.35 -33.17 7.72 -33.72 7.09 -34.28 6.45 -34.85 5.78 -35.45 5.1 -36.05 4.41 -36.68 3.68 -37.32 2.96 -37.98 2.23 -38.65 1.44 -39.34 0.68 -40.04 -0.13 -40.75 -0.93 -41.5 -1.77 -42.24 -2.61 -43.01 -3.48 -43.78 -4.35 -44.58 -5.26 -45.39 68 -7.86 5.38 46.51 4.47 45.72 3.56 44.94 2.69 44.19 1.81 43.46 0.97 42.72 0.13 42.01 -0.7 41.3 -1.5 40.62 -2.29 39.95 -3.06 39.28 -3.82 38.64 -4.57 38 -5.28 37.39 -6 36.77 -6.69 36.19 -7.37 35.6 -8.02 35.02 -8.67 34.49 -9.29 33.92 -9.91 33.41 -10.49 32.89 -11.07 32.38 -11.63 31.9 -12.17 31.42 -12.69 30.95 -13.2 30.5 -13.68 30.07 -14.17 29.65 -14.6 29.24 -15.05 28.83 -15.46 28.47zm0 0c-8.89,16.06 -29.64,22.13 -46.32,13.57 -16.68,-8.56 -22.99,-28.53 -14.1,-44.59l60.42 31.02z"/>
      </g>
      <g>
       <path class="fil3" d="M5982.09 9274.37c-4.21,17.74 -22.58,28.83 -41.01,24.78 -18.43,-4.05 -29.96,-21.74 -25.75,-39.48l66.76 14.7zm-26.34 -623.5l68.1 -6.98 2.03 19.41 1.83 19.43 1.61 19.46 1.38 19.47 1.17 19.49 0.96 19.51 0.74 19.53 0.53 19.53 0.32 19.58 0.09 19.59 -0.12 19.6 -0.34 19.63 -0.55 19.65 -0.77 19.65 -0.98 19.67 -1.2 19.71 -1.41 19.71 -1.63 19.75 -1.85 19.74 -2.06 19.77 -2.28 19.79 -2.49 19.8 -2.71 19.83 -2.92 19.83 -3.14 19.86 -3.35 19.88 -3.57 19.89 -3.78 19.91 -3.99 19.93 -4.22 19.94 -4.42 19.95 -4.64 19.99 -66.76 -14.7 4.5 -19.35 4.28 -19.33 4.08 -19.32 3.87 -19.29 3.66 -19.27 3.45 -19.25 3.25 -19.22 3.02 -19.2 2.84 -19.19 2.61 -19.15 2.41 -19.14 2.2 -19.11 1.98 -19.09 1.79 -19.08 1.57 -19.05 1.37 -19.03 1.16 -19.01 0.94 -18.99 0.75 -18.97 0.53 -18.95 0.32 -18.93 0.12 -18.9 -0.09 -18.89 -0.3 -18.86 -0.51 -18.85 -0.72 -18.83 -0.92 -18.81 -1.13 -18.79 -1.34 -18.77 -1.55 -18.74 -1.75 -18.73 -1.97 -18.71zm0 0c-1.99,-18.1 11.63,-34.35 30.43,-36.27 18.8,-1.92 35.68,11.19 37.67,29.29l-68.1 6.98z"/>
      </g>
      <g>
       <path class="fil3" d="M5768.87 9455.57c-6.06,17.24 -25.5,26.48 -43.41,20.65 -17.91,-5.83 -27.51,-24.55 -21.45,-41.79l64.86 21.14zm36.05 -695.36l68.46 -1.52 -0.01 -0.26 0.61 22.84 0.37 22.77 0.1 22.71 -0.13 22.63 -0.39 22.58 -0.64 22.51 -0.89 22.44 -1.14 22.36 -1.38 22.3 -1.65 22.23 -1.88 22.17 -2.15 22.1 -2.39 22.03 -2.63 21.96 -2.89 21.9 -3.14 21.83 -3.39 21.75 -3.64 21.69 -3.89 21.62 -4.14 21.55 -4.39 21.48 -4.64 21.41 -4.9 21.35 -5.14 21.26 -5.39 21.21 -5.65 21.14 -5.89 21.06 -6.15 20.99 -6.39 20.92 -6.64 20.85 -6.89 20.78 -7.15 20.72 -64.86 -21.14 6.89 -19.98 6.65 -20.06 6.42 -20.13 6.17 -20.2 5.93 -20.27 5.69 -20.32 5.45 -20.4 5.21 -20.47 4.96 -20.54 4.72 -20.61 4.48 -20.67 4.25 -20.74 4 -20.81 3.75 -20.88 3.52 -20.95 3.27 -21.03 3.04 -21.09 2.79 -21.16 2.55 -21.22 2.31 -21.31 2.07 -21.36 1.82 -21.45 1.59 -21.51 1.34 -21.58 1.1 -21.66 0.87 -21.72 0.62 -21.79 0.37 -21.86 0.13 -21.95 -0.1 -22.01 -0.35 -22.07 -0.59 -22.16 -0.01 -0.26zm0.01 0.26c-0.58,-18.19 14.27,-33.41 33.16,-33.97 18.89,-0.56 34.7,13.74 35.28,31.93l-68.44 2.04zm-162.2 -651.12l50.46 -44.56 10.82 11.88 10.43 12.53 10.07 13.18 9.68 13.82 9.32 14.45 8.96 15.07 8.61 15.69 8.26 16.33 7.92 16.94 7.6 17.59 7.24 18.18 6.94 18.82 6.61 19.45 6.29 20.07 5.97 20.7 5.66 21.32 5.36 21.96 5.06 22.6 4.74 23.22 4.44 23.85 4.15 24.49 3.84 25.14 3.54 25.77 3.26 26.4 2.95 27.05 2.66 27.7 2.36 28.34 2.08 28.98 1.78 29.62 1.49 30.28 1.19 30.91 0.91 31.57 -68.46 1.52 -0.89 -30.95 -1.17 -30.27 -1.45 -29.6 -1.74 -28.92 -2.02 -28.24 -2.3 -27.58 -2.58 -26.88 -2.87 -26.21 -3.14 -25.52 -3.42 -24.85 -3.7 -24.16 -3.97 -23.49 -4.24 -22.79 -4.52 -22.1 -4.78 -21.42 -5.06 -20.72 -5.32 -20.04 -5.59 -19.34 -5.85 -18.65 -6.09 -17.95 -6.36 -17.26 -6.6 -16.56 -6.84 -15.85 -7.1 -15.16 -7.32 -14.47 -7.55 -13.77 -7.76 -13.07 -7.98 -12.37 -8.2 -11.68 -8.39 -11 -8.61 -10.33 -8.78 -9.66zm0 0c-12.78,-13.41 -11.85,-34.27 2.08,-46.57 13.93,-12.3 35.6,-11.4 48.38,2.01l-50.46 44.56z"/>
      </g>
      <g>
       <path class="fil3" d="M4977.86 9673.62c-10.14,15.36 -31.31,19.9 -47.27,10.14 -15.96,-9.76 -20.67,-30.14 -10.53,-45.5l57.8 35.36zm217.61 -841.64l68.48 -0.06 -0.04 1.54 -1.43 25.58 -1.86 25.65 -2.3 25.71 -2.75 25.79 -3.2 25.86 -3.65 25.9 -4.12 25.97 -4.57 26.02 -5.05 26.07 -5.53 26.12 -6 26.17 -6.49 26.21 -6.98 26.26 -7.47 26.28 -7.97 26.33 -8.48 26.36 -8.99 26.39 -9.5 26.41 -10.02 26.43 -10.54 26.47 -11.07 26.47 -11.61 26.5 -12.15 26.5 -12.69 26.53 -13.24 26.51 -13.78 26.54 -14.36 26.52 -14.9 26.54 -15.48 26.53 -16.05 26.52 -16.62 26.52 -17.2 26.5 -57.8 -35.36 16.64 -25.64 16.08 -25.64 15.51 -25.64 14.94 -25.61 14.4 -25.62 13.84 -25.6 13.3 -25.58 12.76 -25.57 12.23 -25.55 11.69 -25.52 11.17 -25.5 10.65 -25.47 10.14 -25.45 9.64 -25.43 9.14 -25.37 8.63 -25.35 8.14 -25.32 7.65 -25.27 7.17 -25.24 6.7 -25.2 6.23 -25.15 5.76 -25.09 5.29 -25.06 4.85 -24.99 4.39 -24.96 3.94 -24.89 3.51 -24.84 3.06 -24.78 2.63 -24.71 2.2 -24.67 1.8 -24.59 1.37 -24.52 -0.04 1.54zm0.04 -1.54c0.86,-18.18 16.88,-32.25 35.76,-31.42 18.88,0.83 33.5,16.26 32.64,34.44l-68.4 -3.02zm-145.05 -420.82l-11.26 -65.02 4 -0.41 15.82 -0.16 15.44 1.06 15.03 2.29 14.57 3.57 14.01 4.85 13.38 6.11 12.68 7.35 11.88 8.49 11.07 9.54 10.25 10.55 9.43 11.44 8.68 12.31 7.94 13.12 7.28 13.9 6.66 14.69 6.06 15.45 5.54 16.21 5.03 17 4.54 17.75 4.11 18.52 3.68 19.32 3.27 20.09 2.9 20.87 2.54 21.67 2.19 22.46 1.85 23.24 1.54 24.04 1.23 24.83 0.93 25.61 0.67 26.41 0.4 27.19 0.15 27.96 -68.48 0.06 -0.15 -27.4 -0.38 -26.55 -0.65 -25.71 -0.91 -24.85 -1.19 -23.95 -1.48 -23.1 -1.77 -22.2 -2.07 -21.28 -2.38 -20.39 -2.7 -19.45 -3.03 -18.51 -3.34 -17.56 -3.67 -16.58 -4 -15.61 -4.31 -14.58 -4.64 -13.59 -4.94 -12.57 -5.2 -11.51 -5.48 -10.48 -5.72 -9.44 -5.92 -8.41 -6.11 -7.42 -6.29 -6.47 -6.45 -5.58 -6.68 -4.77 -6.92 -4.01 -7.3 -3.33 -7.75 -2.69 -8.31 -2.03 -8.99 -1.37 -9.74 -0.66 -10.54 0.1 4 -0.41zm-4 0.41c-18.88,0.86 -34.93,-13.17 -35.83,-31.35 -0.9,-18.18 13.69,-33.63 32.57,-34.49l3.26 65.84zm-97.75 200.3l-67.96 8.18 0.87 4.3 -3.24 -12.61 -2.78 -12.49 -2.31 -12.32 -1.83 -12.18 -1.35 -12.03 -0.85 -11.84 -0.36 -11.69 0.16 -11.52 0.67 -11.33 1.21 -11.15 1.75 -10.95 2.32 -10.75 2.89 -10.5 3.46 -10.26 4.07 -10.01 4.66 -9.72 5.27 -9.39 5.86 -9.03 6.47 -8.67 7.06 -8.27 7.64 -7.83 8.19 -7.37 8.73 -6.91 9.26 -6.41 9.75 -5.91 10.23 -5.4 10.69 -4.9 11.14 -4.37 11.57 -3.86 12.01 -3.35 12.4 -2.85 12.84 -2.34 11.26 65.02 -9.8 1.8 -9.26 2.11 -8.71 2.43 -8.17 2.74 -7.68 3.01 -7.15 3.26 -6.67 3.52 -6.21 3.77 -5.76 3.99 -5.35 4.23 -4.95 4.45 -4.56 4.69 -4.22 4.93 -3.87 5.19 -3.54 5.47 -3.23 5.75 -2.9 6.04 -2.57 6.35 -2.26 6.7 -1.93 7.02 -1.58 7.33 -1.23 7.67 -0.87 8.01 -0.49 8.35 -0.12 8.66 0.28 8.97 0.67 9.3 1.07 9.57 1.49 9.88 1.89 10.14 2.32 10.41 2.74 10.67 0.87 4.3zm-0.87 -4.3c4.81,17.6 -6.11,35.63 -24.39,40.26 -18.28,4.63 -37.02,-5.88 -41.83,-23.48l66.22 -16.78zm-14.21 446.94l-65.2 -20.16 2.19 -6.84 2.16 -7.22 2.09 -7.61 2.03 -8 1.96 -8.37 1.88 -8.78 1.79 -9.16 1.71 -9.56 1.61 -9.93 1.49 -10.31 1.38 -10.72 1.27 -11.12 1.14 -11.49 1.01 -11.9 0.88 -12.3 0.72 -12.68 0.57 -13.08 0.42 -13.5 0.25 -13.88 0.09 -14.3 -0.09 -14.7 -0.27 -15.09 -0.46 -15.53 -0.65 -15.91 -0.85 -16.34 -1.05 -16.74 -1.26 -17.16 -1.48 -17.58 -1.7 -17.99 -1.94 -18.42 -2.16 -18.83 -2.41 -19.26 67.96 -8.18 2.47 19.88 2.24 19.45 2 19.06 1.76 18.63 1.54 18.24 1.32 17.84 1.09 17.42 0.89 17.04 0.67 16.63 0.48 16.23 0.29 15.85 0.09 15.46 -0.09 15.06 -0.27 14.68 -0.44 14.3 -0.61 13.92 -0.78 13.54 -0.94 13.16 -1.07 12.78 -1.24 12.43 -1.37 12.02 -1.5 11.68 -1.65 11.33 -1.77 10.97 -1.89 10.58 -2.01 10.24 -2.12 9.88 -2.22 9.57 -2.35 9.2 -2.43 8.85 -2.54 8.54 -2.63 8.18zm0 0c-5.78,17.33 -25.07,26.86 -43.07,21.3 -18,-5.56 -27.91,-24.13 -22.13,-41.46l65.2 20.16z"/>
      </g>
      <g>
       <path class="fil3" d="M4647.09 9603.93c-11.76,14.25 -33.31,16.63 -48.11,5.31 -14.8,-11.32 -17.27,-32.06 -5.51,-46.31l53.62 41zm173.26 -399.24l65.5 19.2 -3.15 9.6 -3.44 9.72 -3.73 9.86 -4 10 -4.29 10.14 -4.57 10.26 -4.83 10.4 -5.11 10.55 -5.4 10.72 -5.68 10.85 -5.93 10.98 -6.23 11.15 -6.5 11.3 -6.77 11.44 -7.05 11.6 -7.32 11.76 -7.61 11.91 -7.86 12.06 -8.17 12.24 -8.42 12.38 -8.7 12.54 -8.99 12.7 -9.26 12.86 -9.53 13.02 -9.81 13.19 -10.09 13.34 -10.36 13.5 -10.64 13.66 -10.91 13.83 -11.19 14 -11.47 14.16 -11.75 14.32 -53.62 -41 11.49 -14.02 11.21 -13.84 10.93 -13.66 10.65 -13.49 10.36 -13.32 10.08 -13.12 9.79 -12.96 9.51 -12.77 9.23 -12.6 8.94 -12.42 8.65 -12.24 8.36 -12.06 8.1 -11.88 7.79 -11.7 7.52 -11.52 7.23 -11.33 6.94 -11.14 6.67 -10.96 6.37 -10.78 6.1 -10.58 5.79 -10.39 5.53 -10.22 5.24 -10.01 4.94 -9.82 4.67 -9.63 4.39 -9.44 4.11 -9.24 3.81 -9.02 3.54 -8.82 3.25 -8.64 2.98 -8.42 2.71 -8.2zm0 0c5.51,-17.41 24.65,-27.23 42.73,-21.93 18.08,5.3 28.28,23.72 22.77,41.13l-65.5 -19.2z"/>
      </g>
      <g>
       <path class="fil3" d="M4488.37 9539.42c-12.57,13.6 -34.22,14.82 -48.34,2.72 -14.12,-12.1 -15.39,-32.94 -2.82,-46.54l51.16 43.82zm235.25 -879.15l67.22 -12.6 5.37 28.91 4.42 28.87 3.45 28.83 2.49 28.78 1.53 28.73 0.57 28.67 -0.4 28.64 -1.37 28.57 -2.31 28.49 -3.3 28.45 -4.26 28.37 -5.21 28.3 -6.17 28.22 -7.15 28.15 -8.08 28.06 -9.06 27.99 -10.01 27.9 -10.95 27.81 -11.9 27.73 -12.85 27.63 -13.8 27.56 -14.74 27.45 -15.67 27.37 -16.62 27.27 -17.55 27.19 -18.48 27.1 -19.42 27 -20.34 26.92 -21.28 26.82 -22.2 26.75 -23.13 26.65 -24.05 26.57 -51.16 -43.82 23.13 -25.55 22.19 -25.57 21.26 -25.61 20.34 -25.64 19.4 -25.68 18.48 -25.7 17.56 -25.74 16.63 -25.77 15.72 -25.79 14.79 -25.83 13.88 -25.85 12.96 -25.88 12.05 -25.91 11.14 -25.95 10.23 -25.97 9.33 -26.02 8.42 -26.05 7.52 -26.08 6.63 -26.13 5.73 -26.16 4.83 -26.22 3.94 -26.25 3.04 -26.31 2.15 -26.37 1.27 -26.43 0.36 -26.48 -0.53 -26.55 -1.41 -26.63 -2.31 -26.68 -3.21 -26.77 -4.1 -26.83 -5.01 -26.93zm0 0c-3.61,-17.86 8.51,-35.18 27.07,-38.65 18.56,-3.47 36.54,8.19 40.15,26.05l-67.22 12.6z"/>
      </g>
      <g>
       <path class="fil3" d="M4239.86 9356.83c-13.7,12.54 -35.38,12.01 -48.4,-1.18 -13.02,-13.19 -12.48,-34.06 1.22,-46.6l47.18 47.78zm149.69 -312.08l64.3 22.66 -3.57 9.11 -3.77 9.12 -3.99 9.1 -4.18 9.09 -4.39 9.1 -4.6 9.08 -4.8 9.08 -5 9.08 -5.21 9.08 -5.4 9.04 -5.6 9.06 -5.82 9.06 -6 9.04 -6.21 9.05 -6.41 9.04 -6.6 9.03 -6.8 9.02 -6.99 9.03 -7.21 9.04 -7.39 9.01 -7.58 9.01 -7.79 9.02 -7.99 9.02 -8.18 9.01 -8.38 9.01 -8.57 9.02 -8.77 9.01 -8.96 9.01 -9.17 9.01 -9.35 9.02 -9.56 9 -9.75 9.02 -47.18 -47.78 9.25 -8.56 9.06 -8.54 8.85 -8.52 8.65 -8.51 8.44 -8.49 8.25 -8.47 8.05 -8.46 7.84 -8.43 7.64 -8.43 7.45 -8.4 7.23 -8.38 7.04 -8.37 6.85 -8.35 6.63 -8.3 6.43 -8.31 6.24 -8.28 6.04 -8.27 5.85 -8.24 5.63 -8.21 5.44 -8.2 5.24 -8.16 5.04 -8.16 4.86 -8.14 4.65 -8.1 4.46 -8.08 4.26 -8.06 4.06 -8.04 3.87 -8 3.68 -8.01 3.49 -7.96 3.29 -7.94 3.11 -7.93zm0 0c6.5,-17.09 26.17,-25.87 43.92,-19.62 17.75,6.25 26.88,25.19 20.38,42.28l-64.3 -22.66z"/>
      </g>
      <g>
       <path class="fil3" d="M4365.02 9460.41c-12.62,13.55 -34.28,14.69 -48.35,2.54 -14.07,-12.15 -15.25,-32.99 -2.63,-46.54l50.98 44zm214.92 -779.8l66.98 -13.72 0.54 3.22 3.42 33.87 2.39 33.11 1.36 32.36 0.37 31.63 -0.61 30.94 -1.56 30.24 -2.48 29.56 -3.39 28.92 -4.27 28.25 -5.12 27.64 -5.94 27.02 -6.76 26.44 -7.52 25.85 -8.27 25.29 -8.99 24.74 -9.68 24.21 -10.34 23.7 -10.98 23.19 -11.59 22.73 -12.15 22.24 -12.7 21.81 -13.22 21.4 -13.71 20.98 -14.17 20.61 -14.6 20.24 -15 19.9 -15.38 19.58 -15.72 19.28 -16.05 19.01 -16.32 18.74 -16.61 18.52 -16.85 18.3 -50.98 -44 16.29 -17.7 15.99 -17.84 15.68 -18 15.35 -18.17 14.98 -18.38 14.6 -18.58 14.18 -18.82 13.76 -19.08 13.31 -19.35 12.83 -19.64 12.34 -19.96 11.82 -20.31 11.29 -20.66 10.73 -21.03 10.14 -21.45 9.56 -21.86 8.92 -22.33 8.29 -22.8 7.61 -23.29 6.94 -23.83 6.22 -24.36 5.48 -24.94 4.74 -25.56 3.95 -26.17 3.15 -26.82 2.3 -27.5 1.46 -28.22 0.57 -28.92 -0.35 -29.67 -1.28 -30.46 -2.25 -31.25 -3.24 -32.07 0.54 3.22zm-0.54 -3.22c-2.08,-18.09 11.46,-34.39 30.25,-36.4 18.79,-2.01 35.73,11.03 37.81,29.12l-68.06 7.28zm514.32 -616.68l-1.92 65.9 -32 -0.09 -30.84 1.48 -29.69 2.99 -28.53 4.43 -27.39 5.81 -26.22 7.17 -25.06 8.45 -23.92 9.67 -22.77 10.88 -21.64 12.02 -20.51 13.13 -19.36 14.19 -18.22 15.22 -17.12 16.21 -15.95 17.16 -14.82 18.09 -13.68 18.97 -12.5 19.81 -11.34 20.65 -10.14 21.4 -8.95 22.17 -7.73 22.85 -6.49 23.5 -5.24 24.13 -3.98 24.71 -2.68 25.23 -1.38 25.73 -0.06 26.16 1.28 26.56 2.64 26.91 4.01 27.22 5.4 27.47 -66.98 13.72 -5.98 -30.43 -4.45 -30.24 -2.94 -30.01 -1.44 -29.72 0.06 -29.4 1.56 -29.01 3.04 -28.59 4.52 -28.09 5.98 -27.55 7.45 -26.98 8.91 -26.33 10.35 -25.63 11.8 -24.88 13.22 -24.07 14.64 -23.21 16.06 -22.27 17.44 -21.29 18.83 -20.24 20.18 -19.13 21.52 -17.96 22.84 -16.73 24.13 -15.45 25.38 -14.1 26.63 -12.72 27.82 -11.27 29 -9.77 30.16 -8.23 31.27 -6.65 32.37 -5.03 33.43 -3.35 34.5 -1.66 35.5 0.09zm0 0c18.9,0.51 33.8,15.69 33.27,33.88 -0.53,18.19 -16.29,32.53 -35.19,32.02l1.92 -65.9z"/>
      </g>
      <g>
       <path class="fil3" d="M4783.37 8491.45c-5.08,17.53 -23.97,27.78 -42.18,22.89 -18.21,-4.89 -28.86,-23.08 -23.78,-40.61l65.96 17.72zm551.3 -150.62l-59.26 33.02 3.06 4.28 -15.71 -17.54 -16.2 -16.03 -16.62 -14.55 -17 -13.1 -17.32 -11.64 -17.57 -10.23 -17.78 -8.83 -17.92 -7.45 -18.03 -6.09 -18.08 -4.75 -18.11 -3.43 -18.04 -2.12 -17.98 -0.81 -17.86 0.46 -17.7 1.74 -17.5 3.02 -17.26 4.27 -16.98 5.54 -16.66 6.82 -16.3 8.08 -15.88 9.37 -15.44 10.66 -14.93 11.96 -14.37 13.26 -13.75 14.6 -13.11 15.94 -12.36 17.27 -11.57 18.62 -10.71 20.01 -9.81 21.37 -8.79 22.75 -7.76 24.15 -65.96 -17.72 8.88 -27.65 10.19 -26.33 11.45 -24.97 12.65 -23.61 13.81 -22.24 14.9 -20.81 15.93 -19.38 16.91 -17.94 17.83 -16.46 18.67 -14.96 19.46 -13.44 20.16 -11.89 20.8 -10.32 21.34 -8.72 21.84 -7.14 22.24 -5.51 22.56 -3.88 22.82 -2.24 22.96 -0.6 23.04 1.05 23.06 2.7 22.97 4.35 22.82 5.99 22.59 7.63 22.3 9.27 21.92 10.89 21.49 12.51 20.98 14.12 20.42 15.72 19.78 17.31 19.1 18.91 18.33 20.46 3.06 4.28zm-3.06 -4.28c11.92,14.12 9.69,34.89 -4.98,46.37 -14.67,11.48 -36.24,9.33 -48.16,-4.79l53.14 -41.58zm89.77 477.79l-68.34 -4.32 0.96 -15.24 0.78 -15.19 0.6 -15.15 0.42 -15.11 0.22 -15.05 0.04 -14.98 -0.16 -14.92 -0.36 -14.83 -0.58 -14.75 -0.78 -14.66 -1.01 -14.56 -1.22 -14.48 -1.43 -14.34 -1.68 -14.24 -1.9 -14.11 -2.14 -13.96 -2.38 -13.85 -2.62 -13.7 -2.87 -13.53 -3.13 -13.39 -3.37 -13.22 -3.64 -13.04 -3.9 -12.88 -4.17 -12.69 -4.43 -12.52 -4.7 -12.29 -4.99 -12.11 -5.27 -11.91 -5.54 -11.69 -5.84 -11.48 -6.13 -11.26 -6.41 -11.04 59.26 -33.02 7.37 12.66 7.01 12.88 6.64 13.08 6.3 13.27 5.95 13.45 5.61 13.63 5.28 13.81 4.95 13.96 4.63 14.11 4.32 14.26 4.02 14.4 3.71 14.54 3.43 14.67 3.13 14.79 2.86 14.9 2.58 15.01 2.32 15.12 2.04 15.21 1.8 15.3 1.55 15.4 1.3 15.44 1.07 15.54 0.84 15.62 0.6 15.67 0.38 15.71 0.18 15.78 -0.04 15.8 -0.24 15.85 -0.44 15.87 -0.62 15.91 -0.82 15.93 -1 15.94zm0 0c-1.24,18.16 -17.55,31.92 -36.42,30.73 -18.87,-1.19 -33.16,-16.89 -31.92,-35.05l68.34 4.32z"/>
      </g>
      <g>
       <path class="fil3" d="M5370.01 7577.95c-18.02,-5.5 -28,-24.03 -22.29,-41.38 5.71,-17.35 24.97,-26.96 42.99,-21.46l-20.7 62.84zm825.21 1333.96l-68.46 -1.7 1.03 -68.23 -0.59 -66.49 -2.21 -64.76 -3.83 -63.02 -5.44 -61.28 -7.05 -59.53 -8.66 -57.78 -10.25 -56.05 -11.85 -54.31 -13.45 -52.55 -15.02 -50.83 -16.6 -49.08 -18.18 -47.35 -19.74 -45.63 -21.31 -43.9 -22.86 -42.19 -24.43 -40.48 -25.99 -38.8 -27.53 -37.1 -29.1 -35.43 -30.66 -33.76 -32.23 -32.11 -33.81 -30.47 -35.4 -28.83 -36.98 -27.21 -38.61 -25.58 -40.21 -23.96 -41.86 -22.35 -43.5 -20.74 -45.14 -19.11 -46.81 -17.48 -48.48 -15.87 20.7 -62.84 51.18 16.75 49.57 18.52 47.96 20.31 46.32 22.08 44.68 23.85 43.03 25.64 41.37 27.42 39.7 29.19 38.02 30.97 36.31 32.73 34.61 34.49 32.9 36.22 31.18 37.97 29.45 39.68 27.73 41.4 26.01 43.1 24.28 44.79 22.55 46.48 20.84 48.15 19.14 49.83 17.4 51.48 15.72 53.15 14.01 54.81 12.33 56.47 10.63 58.11 8.96 59.78 7.27 61.43 5.6 63.08 3.93 64.74 2.27 66.4 0.61 68.05 -1.05 69.73zm0 0c-0.48,18.19 -16.21,32.56 -35.11,32.1 -18.9,-0.46 -33.83,-15.61 -33.35,-33.8l68.46 1.7z"/>
      </g>
      <g>
       <path class="fil3" d="M5197.96 7474.11c18.86,1.31 33.03,17.11 31.67,35.26 -1.36,18.15 -17.77,31.79 -36.63,30.48l4.96 -65.74zm-1159.94 1242.1l-68.06 7.36 0.13 0.98 -8.56 -70.24 -4.7 -68.98 -0.93 -67.66 2.78 -66.25 6.4 -64.77 9.94 -63.21 13.41 -61.59 16.81 -59.87 20.09 -58.07 23.33 -56.22 26.47 -54.27 29.52 -52.25 32.49 -50.14 35.36 -47.98 38.16 -45.71 40.85 -43.39 43.47 -40.98 45.98 -38.51 48.4 -35.96 50.75 -33.34 52.99 -30.65 55.13 -27.88 57.21 -25.07 59.17 -22.17 61.04 -19.2 62.83 -16.18 64.53 -13.09 66.13 -9.93 67.65 -6.71 69.09 -3.43 70.42 -0.08 71.66 3.34 -4.96 65.74 -68.34 -3.18 -67 0.08 -65.61 3.25 -64.13 6.37 -62.59 9.39 -60.95 12.37 -59.25 15.26 -57.48 18.08 -55.61 20.83 -53.69 23.53 -51.69 26.14 -49.61 28.69 -47.45 31.18 -45.24 33.6 -42.94 35.97 -40.57 38.24 -38.11 40.49 -35.6 42.65 -33 44.76 -30.33 46.82 -27.58 48.81 -24.75 50.75 -21.83 52.62 -18.85 54.45 -15.77 56.21 -12.61 57.91 -9.38 59.57 -6.04 61.17 -2.62 62.69 0.87 64.16 4.48 65.58 8.16 66.94 0.13 0.98zm-0.13 -0.98c2.67,18.02 -10.34,34.72 -29.06,37.29 -18.72,2.57 -36.07,-9.95 -38.74,-27.97l67.8 -9.32zm-70.97 264.95l-49.1 -45.96 3.15 -3.25 3.15 -3.52 3.12 -3.76 3.08 -4.04 3.06 -4.28 2.97 -4.51 2.93 -4.78 2.86 -5.01 2.77 -5.22 2.67 -5.46 2.58 -5.7 2.49 -5.91 2.36 -6.1 2.23 -6.32 2.13 -6.54 1.97 -6.69 1.84 -6.92 1.7 -7.1 1.54 -7.26 1.38 -7.43 1.22 -7.6 1.05 -7.78 0.87 -7.92 0.68 -8.07 0.51 -8.24 0.31 -8.35 0.11 -8.5 -0.09 -8.64 -0.3 -8.76 -0.51 -8.87 -0.73 -9.01 -0.96 -9.11 68.06 -7.36 1.1 10.59 0.85 10.47 0.61 10.37 0.34 10.26 0.11 10.12 -0.13 10.02 -0.37 9.89 -0.59 9.74 -0.82 9.61 -1.05 9.48 -1.25 9.3 -1.46 9.18 -1.68 9.01 -1.88 8.86 -2.08 8.68 -2.26 8.5 -2.47 8.37 -2.65 8.16 -2.83 7.98 -3.02 7.82 -3.19 7.61 -3.36 7.4 -3.55 7.24 -3.71 7.02 -3.88 6.81 -4.05 6.6 -4.23 6.39 -4.38 6.16 -4.56 5.94 -4.72 5.7 -4.87 5.46 -5.07 5.23zm0 0c-13.18,13.05 -34.87,13.34 -48.42,0.65 -13.55,-12.69 -13.86,-33.56 -0.68,-46.61l49.1 45.96z"/>
      </g>
      <g>
       <path class="fil3" d="M4065.71 9108.7c-11.28,14.6 -32.74,17.64 -47.91,6.79 -15.17,-10.85 -18.33,-31.51 -7.05,-46.11l54.96 39.32zm55.35 -369.2l67.16 -12.86 2.12 11.26 1.72 11.32 1.32 11.36 0.94 11.47 0.52 11.51 0.13 11.53 -0.26 11.61 -0.65 11.65 -1.05 11.68 -1.43 11.74 -1.83 11.78 -2.2 11.79 -2.59 11.85 -2.97 11.89 -3.35 11.89 -3.72 11.95 -4.11 11.99 -4.47 12 -4.83 12.03 -5.2 12.08 -5.57 12.1 -5.93 12.15 -6.31 12.17 -6.65 12.21 -7.02 12.25 -7.38 12.28 -7.73 12.32 -8.09 12.35 -8.44 12.41 -8.81 12.44 -9.16 12.48 -9.51 12.52 -54.96 -39.32 8.87 -11.68 8.5 -11.58 8.13 -11.5 7.78 -11.41 7.41 -11.33 7.07 -11.26 6.7 -11.16 6.34 -11.05 5.99 -10.99 5.63 -10.89 5.27 -10.79 4.93 -10.72 4.58 -10.6 4.23 -10.53 3.89 -10.44 3.53 -10.31 3.18 -10.25 2.87 -10.17 2.51 -10.03 2.17 -9.97 1.86 -9.89 1.51 -9.78 1.19 -9.7 0.85 -9.62 0.55 -9.53 0.2 -9.45 -0.11 -9.39 -0.42 -9.31 -0.74 -9.21 -1.08 -9.18 -1.38 -9.12 -1.7 -9.04zm0 0c-3.68,-17.85 8.36,-35.21 26.9,-38.76 18.54,-3.55 36.58,8.05 40.26,25.9l-67.16 12.86z"/>
      </g>
      <g>
       <path class="fil3" d="M4189.69 8734.23c3.69,17.85 -8.35,35.22 -26.89,38.77 -18.54,3.55 -36.58,-8.04 -40.27,-25.89l67.16 -12.88zm-82.89 -188.21l68.28 4.96 -0.36 5.05 -0.32 5.15 -0.27 5.12 -0.21 5.17 -0.16 5.27 -0.11 5.27 -0.06 5.3 0 5.34 0.06 5.41 0.1 5.48 0.15 5.49 0.21 5.53 0.27 5.54 0.32 5.63 0.37 5.7 0.42 5.71 0.48 5.73 0.53 5.77 0.59 5.85 0.65 5.9 0.69 5.93 0.74 5.94 0.81 5.98 0.86 6.06 0.92 6.12 0.96 6.11 1.03 6.16 1.08 6.26 1.13 6.26 1.19 6.28 1.24 6.35 1.3 6.39 -67.16 12.88 -1.38 -6.83 -1.34 -6.77 -1.27 -6.78 -1.21 -6.72 -1.16 -6.66 -1.11 -6.66 -1.04 -6.63 -0.98 -6.56 -0.94 -6.54 -0.87 -6.52 -0.82 -6.5 -0.75 -6.43 -0.69 -6.38 -0.65 -6.37 -0.59 -6.35 -0.52 -6.31 -0.46 -6.27 -0.41 -6.2 -0.36 -6.19 -0.29 -6.18 -0.23 -6.15 -0.17 -6.09 -0.12 -6.02 -0.06 -6.01 0 -6.02 0.06 -5.98 0.13 -5.91 0.18 -5.85 0.23 -5.87 0.31 -5.84 0.36 -5.75 0.42 -5.75zm0 0c1.42,-18.15 17.87,-31.75 36.72,-30.39 18.85,1.36 32.98,17.2 31.56,35.35l-68.28 -4.96z"/>
      </g>
      <g>
       <path class="fil3" d="M4736.65 7899.76c-17.34,7.26 -37.52,-0.38 -45.06,-17.07 -7.54,-16.69 0.4,-36.11 17.74,-43.37l27.32 60.44zm829.81 36.62l-43.52 50.88 -21.81 -16.75 -21.95 -15.83 -22.1 -14.89 -22.25 -13.98 -22.41 -13.06 -22.56 -12.14 -22.71 -11.23 -22.88 -10.33 -23.03 -9.42 -23.2 -8.52 -23.36 -7.63 -23.53 -6.73 -23.72 -5.85 -23.89 -4.95 -24.1 -4.07 -24.27 -3.18 -24.48 -2.3 -24.69 -1.41 -24.89 -0.51 -25.12 0.37 -25.34 1.26 -25.55 2.16 -25.79 3.06 -26.02 3.96 -26.24 4.85 -26.49 5.78 -26.72 6.67 -26.97 7.6 -27.2 8.51 -27.43 9.43 -27.68 10.36 -27.91 11.27 -27.32 -60.44 29.57 -11.95 29.4 -11 29.27 -10.07 29.1 -9.09 28.93 -8.16 28.78 -7.19 28.63 -6.24 28.46 -5.27 28.3 -4.3 28.15 -3.34 27.97 -2.36 27.8 -1.38 27.62 -0.41 27.45 0.57 27.27 1.55 27.08 2.54 26.87 3.52 26.68 4.51 26.47 5.49 26.26 6.47 26.05 7.45 25.82 8.43 25.58 9.4 25.37 10.38 25.12 11.33 24.89 12.31 24.66 13.28 24.39 14.22 24.17 15.16 23.92 16.13 23.67 17.07 23.43 18.01zm0 0c14.59,11.57 16.68,32.34 4.67,46.39 -12.01,14.05 -33.6,16.06 -48.19,4.49l43.52 -50.88z"/>
      </g>
      <g>
       <path class="fil3" d="M4174.01 8392.24c-4.89,17.58 -23.67,28.02 -41.93,23.31 -18.26,-4.71 -29.1,-22.79 -24.21,-40.37l66.14 17.06zm905.24 -779.79l-0.36 65.92 0.01 0 -27.7 0.22 -28.56 0.97 -29.32 1.79 -30 2.68 -30.61 3.63 -31.1 4.64 -31.54 5.74 -31.89 6.88 -32.13 8.09 -32.32 9.37 -32.41 10.71 -32.44 12.13 -32.37 13.6 -32.23 15.14 -32.02 16.75 -31.73 18.42 -31.36 20.17 -30.92 21.97 -30.41 23.88 -29.83 25.82 -29.16 27.87 -28.42 29.98 -27.62 32.17 -26.73 34.43 -25.76 36.79 -24.72 39.23 -23.58 41.73 -22.37 44.32 -21.08 46.99 -19.68 49.73 -18.22 52.56 -16.66 55.47 -66.14 -17.06 17.4 -57.97 19.12 -55.14 20.72 -52.37 22.28 -49.67 23.73 -47 25.1 -44.43 26.4 -41.89 27.6 -39.43 28.73 -37.01 29.76 -34.67 30.7 -32.38 31.56 -30.15 32.31 -27.98 32.97 -25.88 33.54 -23.85 34.02 -21.87 34.39 -19.98 34.7 -18.15 34.89 -16.38 34.99 -14.7 35 -13.09 34.93 -11.55 34.78 -10.09 34.53 -8.69 34.19 -7.38 33.78 -6.14 33.28 -4.98 32.69 -3.87 32.02 -2.86 31.28 -1.91 30.44 -1.03 29.54 -0.24 0.01 0zm-0.01 0c18.91,0.09 34.16,14.93 34.07,33.13 -0.09,18.2 -15.5,32.88 -34.41,32.79l0.34 -65.92zm937.22 850.18l-67.02 13.54 -13.8 -57.99 -15.46 -55.27 -17.04 -52.6 -18.52 -49.98 -19.95 -47.43 -21.26 -44.94 -22.51 -42.51 -23.66 -40.15 -24.75 -37.83 -25.76 -35.6 -26.67 -33.43 -27.52 -31.3 -28.3 -29.24 -29 -27.25 -29.62 -25.31 -30.16 -23.44 -30.65 -21.6 -31.06 -19.85 -31.38 -18.13 -31.65 -16.49 -31.83 -14.88 -31.93 -13.32 -31.97 -11.83 -31.92 -10.38 -31.8 -8.99 -31.59 -7.63 -31.32 -6.34 -30.96 -5.1 -30.5 -3.91 -29.97 -2.77 -29.38 -1.67 -28.66 -0.64 0.36 -65.92 31.14 0.7 31.84 1.81 32.47 2.99 33.02 4.23 33.48 5.52 33.88 6.86 34.19 8.27 34.42 9.73 34.56 11.24 34.63 12.81 34.61 14.44 34.51 16.14 34.31 17.87 34.02 19.67 33.66 21.51 33.23 23.42 32.66 25.38 32.04 27.37 31.32 29.43 30.52 31.54 29.62 33.7 28.63 35.87 27.58 38.12 26.43 40.41 25.2 42.75 23.89 45.11 22.48 47.56 21.03 50.01 19.48 52.54 17.84 55.1 16.16 57.71 14.36 60.37zm0 0c3.88,17.81 -7.98,35.3 -26.48,39.03 -18.5,3.73 -36.66,-7.68 -40.54,-25.49l67.02 -13.54z"/>
      </g>
      <g>
       <path class="fil3" d="M4557.83 7922.88c14.77,-11.35 36.33,-9.02 48.12,5.2 11.79,14.22 9.37,34.97 -5.4,46.32l-42.72 -51.52zm-218.44 754.5l-68.2 5.92 0.41 2.91 -5.07 -29.16 -4.18 -28.84 -3.29 -28.52 -2.4 -28.21 -1.5 -27.9 -0.59 -27.57 0.31 -27.24 1.21 -26.92 2.13 -26.61 3.04 -26.26 3.95 -25.93 4.87 -25.61 5.77 -25.26 6.71 -24.91 7.61 -24.55 8.54 -24.21 9.44 -23.84 10.38 -23.47 11.27 -23.1 12.18 -22.73 13.1 -22.35 13.99 -21.96 14.9 -21.58 15.79 -21.2 16.69 -20.8 17.56 -20.4 18.45 -20.02 19.33 -19.63 20.21 -19.22 21.07 -18.84 21.95 -18.44 22.81 -18.05 42.72 51.52 -21.27 16.83 -20.39 17.14 -19.53 17.44 -18.65 17.76 -17.79 18.05 -16.93 18.38 -16.08 18.68 -15.23 18.98 -14.37 19.28 -13.52 19.6 -12.69 19.92 -11.86 20.23 -11.02 20.55 -10.19 20.88 -9.36 21.21 -8.54 21.54 -7.72 21.87 -6.89 22.23 -6.07 22.57 -5.25 22.92 -4.43 23.29 -3.59 23.65 -2.78 24.02 -1.95 24.37 -1.11 24.76 -0.29 25.14 0.55 25.51 1.38 25.88 2.24 26.27 3.07 26.66 3.92 27.04 4.77 27.42 0.41 2.91zm-0.41 -2.91c3.36,17.91 -8.99,35.06 -27.59,38.3 -18.6,3.24 -36.43,-8.65 -39.79,-26.56l67.38 -11.74zm-194.39 582.92l-48.38 -46.66 12.66 -12.51 12.18 -12.74 11.69 -12.98 11.24 -13.23 10.76 -13.46 10.29 -13.71 9.82 -13.94 9.37 -14.21 8.91 -14.45 8.44 -14.69 7.99 -14.96 7.52 -15.19 7.07 -15.48 6.62 -15.73 6.15 -15.99 5.7 -16.25 5.24 -16.54 4.8 -16.79 4.33 -17.07 3.87 -17.35 3.42 -17.62 2.95 -17.9 2.49 -18.2 2.04 -18.46 1.56 -18.74 1.1 -19.04 0.64 -19.32 0.17 -19.6 -0.31 -19.88 -0.77 -20.19 -1.25 -20.47 -1.71 -20.74 68.2 -5.92 1.83 22.12 1.33 21.87 0.83 21.61 0.33 21.38 -0.19 21.14 -0.68 20.88 -1.2 20.62 -1.7 20.4 -2.22 20.14 -2.73 19.88 -3.23 19.62 -3.76 19.4 -4.27 19.11 -4.79 18.87 -5.3 18.61 -5.82 18.34 -6.34 18.09 -6.87 17.83 -7.38 17.53 -7.89 17.28 -8.42 17.01 -8.93 16.72 -9.44 16.45 -9.97 16.17 -10.47 15.87 -10.98 15.6 -11.51 15.31 -12 15.02 -12.5 14.71 -13.01 14.44 -13.52 14.14 -14 13.85zm0 0c-13.38,12.85 -35.07,12.83 -48.42,-0.05 -13.35,-12.88 -13.34,-33.76 0.04,-46.61l48.38 46.66z"/>
      </g>
      <g>
       <path class="fil3" d="M5702 9112.33c-2.02,18.09 -18.91,31.19 -37.7,29.25 -18.79,-1.94 -32.4,-18.2 -30.38,-36.29l68.08 7.04zm-615.73 -1137.32l-0.72 -65.92 3.16 0.11 45.11 4.7 43.6 6.87 42.07 9.07 40.52 11.26 38.95 13.49 37.35 15.71 35.71 17.94 34.04 20.17 32.35 22.39 30.62 24.58 28.85 26.74 27.07 28.88 25.29 30.98 23.5 33.07 21.7 35.12 19.91 37.14 18.15 39.15 16.4 41.16 14.65 43.13 12.93 45.11 11.22 47.09 9.51 49.08 7.84 51.05 6.16 53.04 4.48 55.03 2.84 57.01 1.18 59.01 -0.47 61.02 -2.1 63.02 -3.75 65.03 -5.37 67.04 -7.02 69.05 -68.08 -7.04 6.88 -67.77 5.27 -65.66 3.65 -63.55 2.06 -61.44 0.45 -59.32 -1.14 -57.19 -2.74 -55.07 -4.32 -52.95 -5.9 -50.8 -7.46 -48.67 -9.03 -46.52 -10.56 -44.37 -12.11 -42.25 -13.61 -40.09 -15.12 -37.96 -16.61 -35.83 -18.09 -33.72 -19.54 -31.62 -20.98 -29.55 -22.45 -27.5 -23.89 -25.5 -25.37 -23.5 -26.84 -21.56 -28.35 -19.61 -29.9 -17.71 -31.47 -15.82 -33.09 -13.91 -34.73 -12.03 -36.4 -10.12 -38.09 -8.21 -39.8 -6.27 -41.53 -4.32 3.16 0.11zm-3.16 -0.11c-18.84,-1.48 -32.87,-17.4 -31.33,-35.54 1.54,-18.14 18.09,-31.64 36.93,-30.16l-5.6 65.7zm-606.77 510.71l-68.2 -6.04 0.58 -3.69 7.83 -33.86 8.69 -32.87 9.55 -31.88 10.39 -30.88 11.27 -29.88 12.12 -28.89 13 -27.88 13.88 -26.88 14.76 -25.86 15.65 -24.83 16.53 -23.82 17.44 -22.77 18.32 -21.74 19.2 -20.66 20.09 -19.6 20.97 -18.53 21.85 -17.43 22.71 -16.33 23.55 -15.23 24.41 -14.13 25.22 -12.99 26.05 -11.9 26.85 -10.76 27.65 -9.66 28.42 -8.53 29.2 -7.43 29.99 -6.33 30.73 -5.22 31.5 -4.13 32.24 -3.04 33 -1.96 33.77 -0.89 0.72 65.92 -31.45 0.83 -30.6 1.82 -29.74 2.8 -28.88 3.79 -28.03 4.76 -27.17 5.73 -26.34 6.71 -25.5 7.65 -24.67 8.62 -23.85 9.56 -23.05 10.52 -22.26 11.47 -21.47 12.41 -20.69 13.39 -19.95 14.35 -19.19 15.31 -18.45 16.29 -17.71 17.3 -17 18.28 -16.28 19.3 -15.54 20.31 -14.83 21.36 -14.11 22.39 -13.38 23.44 -12.64 24.5 -11.92 25.56 -11.18 26.63 -10.43 27.7 -9.69 28.76 -8.93 29.84 -8.17 30.91 -7.41 32 0.58 -3.69zm-0.58 3.69c-3.84,17.82 -21.98,29.26 -40.49,25.56 -18.51,-3.7 -30.39,-21.16 -26.55,-38.98l67.04 13.42zm14.18 134.42l-68 7.76 2.45 8.92 -1.7 -4.02 -1.61 -4.08 -1.51 -4.13 -1.43 -4.18 -1.36 -4.3 -1.26 -4.31 -1.19 -4.4 -1.11 -4.49 -1.02 -4.5 -0.96 -4.62 -0.87 -4.65 -0.8 -4.7 -0.72 -4.81 -0.65 -4.84 -0.58 -4.9 -0.51 -4.96 -0.44 -5.03 -0.37 -5.13 -0.3 -5.21 -0.23 -5.22 -0.16 -5.31 -0.1 -5.37 -0.03 -5.44 0.03 -5.54 0.11 -5.61 0.17 -5.62 0.22 -5.72 0.3 -5.85 0.37 -5.86 0.42 -5.9 0.49 -6.04 0.55 -6.09 68.2 6.04 -0.51 5.49 -0.43 5.4 -0.38 5.36 -0.33 5.22 -0.26 5.09 -0.2 5.06 -0.15 4.98 -0.09 4.85 -0.03 4.74 0.03 4.68 0.08 4.59 0.14 4.49 0.19 4.4 0.24 4.27 0.31 4.17 0.36 4.11 0.41 4.02 0.46 3.92 0.51 3.82 0.56 3.69 0.62 3.62 0.65 3.53 0.7 3.38 0.76 3.34 0.79 3.19 0.85 3.12 0.88 3.03 0.92 2.9 0.97 2.84 1.01 2.75 1.03 2.62 1.06 2.52 2.45 8.92zm-2.45 -8.92c7.34,16.77 -0.83,36.11 -18.25,43.17 -17.42,7.06 -37.51,-0.8 -44.85,-17.57l63.1 -25.6zm8.56 277.71l-66.52 -15.64 0.77 -3.29 0.75 -3.6 0.7 -3.93 0.66 -4.28 0.6 -4.54 0.55 -4.85 0.47 -5.16 0.42 -5.42 0.35 -5.72 0.28 -6.02 0.2 -6.26 0.13 -6.54 0.06 -6.82 -0.02 -7.08 -0.09 -7.37 -0.17 -7.63 -0.24 -7.85 -0.33 -8.15 -0.4 -8.4 -0.48 -8.68 -0.54 -8.91 -0.64 -9.17 -0.7 -9.43 -0.8 -9.69 -0.86 -9.94 -0.95 -10.2 -1.02 -10.46 -1.09 -10.69 -1.19 -10.93 -1.26 -11.21 -1.34 -11.47 -1.41 -11.7 68 -7.76 1.45 11.98 1.36 11.71 1.3 11.47 1.21 11.27 1.13 11.01 1.06 10.76 0.97 10.54 0.9 10.28 0.82 10.07 0.74 9.83 0.66 9.59 0.58 9.37 0.5 9.1 0.42 8.88 0.35 8.67 0.26 8.45 0.17 8.19 0.11 7.97 0.02 7.76 -0.06 7.54 -0.15 7.32 -0.24 7.1 -0.32 6.86 -0.39 6.68 -0.5 6.48 -0.59 6.24 -0.67 6.07 -0.78 5.88 -0.88 5.66 -0.98 5.53 -1.11 5.36 -1.23 5.17zm0 0c-4.48,17.68 -23.02,28.51 -41.38,24.2 -18.36,-4.31 -29.62,-22.16 -25.14,-39.84l66.52 15.64z"/>
      </g>
     </g>
     <ellipse class="fil4 str0" cx="-10049.15" cy="2290.04" rx="1229.86" ry="1183.93"/>
    </g>
   </g>
   <g style="clip-path:url(#id2)">
    <path class="fil5" d="M5052.21 7391.62c646.7,0 1170.94,504.67 1170.94,1127.22 0,622.54 -524.24,1127.21 -1170.94,1127.21 -646.69,0 -1170.94,-504.67 -1170.94,-1127.21 0,-622.55 524.25,-1127.22 1170.94,-1127.22z"/>
    <path class="fil1 str1" d="M5243.5 8791.88c0,-216.56 -175.47,-392.14 -392.07,-392.14 -216.75,0 -392.06,175.58 -392.06,392.14 0,216.44 175.31,392.18 392.06,392.18 216.6,0 392.07,-175.74 392.07,-392.18z"/>
    <g>
     <path class="fil6" d="M4892.51 8624.65c3.1,-32.81 32.36,-56.9 65.34,-53.81 32.98,3.09 57.2,32.2 54.1,65.01l-119.44 -11.2zm344.18 166.4l-2.62 119.32 6.94 -0.25 -20.4 1.66 -19.89 1.07 -19.36 0.48 -18.85 -0.11 -18.37 -0.72 -17.91 -1.37 -17.39 -2.01 -16.96 -2.69 -16.5 -3.39 -16 -4.13 -15.54 -4.89 -15.06 -5.7 -14.52 -6.53 -13.95 -7.38 -13.36 -8.26 -12.7 -9.16 -11.94 -10.03 -11.15 -10.9 -10.26 -11.71 -9.31 -12.42 -8.38 -13.13 -7.38 -13.76 -6.37 -14.28 -5.4 -14.73 -4.45 -15.2 -3.5 -15.56 -2.63 -15.89 -1.77 -16.28 -0.95 -16.6 -0.17 -16.94 0.6 -17.27 1.32 -17.64 119.44 11.2 -0.98 12.98 -0.42 12.25 0.11 11.5 0.61 10.76 1.09 9.98 1.53 9.29 1.92 8.54 2.29 7.82 2.62 7.19 2.93 6.56 3.22 6 3.52 5.53 3.87 5.16 4.2 4.79 4.61 4.5 5.12 4.29 5.64 4.08 6.28 3.88 6.97 3.68 7.68 3.45 8.46 3.2 9.24 2.91 10.08 2.59 10.88 2.25 11.72 1.85 12.55 1.45 13.35 1.01 14.15 0.56 14.99 0.09 15.76 -0.4 16.51 -0.89 17.3 -1.4 6.94 -0.25zm-6.94 0.25c32.98,-3.09 62.25,21 65.35,53.81 3.1,32.81 -21.11,61.92 -54.09,65.01l-11.26 -118.82zm994.26 949.88l-118.36 19.44 -9.49 -52.74 -10.68 -50.97 -11.84 -49.21 -13 -47.44 -14.16 -45.65 -15.3 -43.9 -16.43 -42.13 -17.55 -40.37 -18.67 -38.63 -19.77 -36.89 -20.86 -35.17 -21.94 -33.44 -23.04 -31.75 -24.11 -30.09 -25.2 -28.43 -26.28 -26.8 -27.39 -25.19 -28.5 -23.6 -29.63 -22.03 -30.78 -20.47 -31.96 -18.93 -33.16 -17.39 -34.37 -15.87 -35.62 -14.34 -36.9 -12.8 -38.17 -11.28 -39.47 -9.72 -40.79 -8.16 -42.13 -6.59 -43.45 -5.02 -44.8 -3.43 -46.14 -1.82 2.62 -119.32 50.48 2 49.32 3.77 48.19 5.56 47.03 7.37 45.89 9.18 44.71 11.02 43.53 12.84 42.32 14.7 41.12 16.54 39.87 18.41 38.6 20.25 37.32 22.11 36 23.95 34.67 25.77 33.32 27.58 31.95 29.39 30.56 31.16 29.16 32.91 27.77 34.63 26.36 36.35 24.96 38.04 23.56 39.71 22.17 41.37 20.79 43.01 19.41 44.65 18.05 46.27 16.7 47.9 15.34 49.51 14.02 51.12 12.7 52.73 11.38 54.37 10.07 55.96zm0 0c5.39,32.51 -16.73,63.24 -49.41,68.6 -32.68,5.36 -63.56,-16.65 -68.95,-49.16l118.36 -19.44zm-1639.82 -3176.23c-33.12,0.7 -60.55,-25.45 -61.25,-58.39 -0.7,-32.94 25.57,-60.23 58.69,-60.93l2.56 119.32zm938.61 1128.17l-119.36 -11.88 0.08 -0.74 5.71 -61.3 3.18 -60.15 0.69 -58.95 -1.72 -57.68 -4.12 -56.35 -6.43 -54.97 -8.69 -53.51 -10.92 -52.02 -13.06 -50.45 -15.18 -48.81 -17.22 -47.15 -19.21 -45.42 -21.15 -43.61 -23.03 -41.78 -24.88 -39.9 -26.64 -37.95 -28.39 -35.98 -30.06 -33.94 -31.7 -31.86 -33.3 -29.75 -34.87 -27.58 -36.38 -25.38 -37.89 -23.12 -39.34 -20.83 -40.78 -18.47 -42.2 -16.07 -43.6 -13.61 -44.97 -11.1 -46.32 -8.51 -47.65 -5.87 -48.96 -3.13 -50.25 -0.35 -2.56 -119.32 57.05 0.39 55.92 3.59 54.69 6.73 53.4 9.81 52.05 12.84 50.6 15.81 49.1 18.69 47.52 21.53 45.86 24.27 44.15 26.94 42.36 29.54 40.51 32.06 38.6 34.47 36.64 36.82 34.62 39.08 32.55 41.26 30.44 43.35 28.28 45.38 26.09 47.3 23.85 49.19 21.55 50.96 19.24 52.67 16.88 54.31 14.48 55.89 12.04 57.38 9.55 58.81 7.05 60.17 4.48 61.47 1.88 62.7 -0.75 63.87 -3.44 64.97 -6.15 65.98 0.08 -0.74zm-0.08 0.74c-3.7,32.75 -33.4,56.3 -66.31,52.62 -32.91,-3.68 -56.59,-33.23 -52.89,-65.98l119.2 13.36zm-938.99 1124.66l-1.64 -119.34 37.68 -1.84 37.29 -4.45 36.89 -6.99 36.5 -9.47 36.08 -11.9 35.65 -14.29 35.16 -16.59 34.63 -18.86 34.05 -21.07 33.43 -23.19 32.75 -25.27 32 -27.27 31.2 -29.19 30.34 -31.04 29.43 -32.81 28.46 -34.49 27.42 -36.08 26.33 -37.6 25.21 -39.02 23.99 -40.36 22.76 -41.62 21.46 -42.77 20.11 -43.84 18.71 -44.83 17.27 -45.72 15.78 -46.52 14.24 -47.22 12.65 -47.86 11.02 -48.37 9.35 -48.82 7.64 -49.16 5.87 -49.43 119.36 11.88 -6.37 53.67 -8.28 53.32 -10.13 52.9 -11.94 52.39 -13.69 51.8 -15.42 51.12 -17.08 50.38 -18.71 49.52 -20.29 48.61 -21.83 47.6 -23.34 46.53 -24.8 45.34 -26.23 44.1 -27.61 42.76 -28.95 41.34 -30.28 39.82 -31.54 38.23 -32.79 36.55 -34 34.78 -35.18 32.91 -36.32 30.95 -37.45 28.91 -38.53 26.73 -39.57 24.47 -40.59 22.1 -41.56 19.61 -42.47 17.01 -43.36 14.3 -44.16 11.45 -44.91 8.51 -45.57 5.43 -46.12 2.26zm0 0c-33.12,0.45 -60.35,-25.9 -60.8,-58.85 -0.45,-32.95 26.04,-60.04 59.16,-60.49l1.64 119.34zm1.25 -2372.89c33.12,0.7 59.39,27.99 58.69,60.93 -0.7,32.94 -28.13,59.09 -61.25,58.39l2.56 -119.32zm-821.81 1235.61l-119.36 11.88 0.08 0.74 -6.15 -65.98 -3.44 -64.97 -0.75 -63.87 1.88 -62.7 4.48 -61.47 7.05 -60.18 9.56 -58.8 12.03 -57.38 14.48 -55.89 16.88 -54.31 19.24 -52.67 21.55 -50.96 23.85 -49.19 26.09 -47.3 28.28 -45.38 30.44 -43.35 32.56 -41.26 34.63 -39.08 36.63 -36.82 38.59 -34.47 40.51 -32.06 42.37 -29.54 44.14 -26.94 45.86 -24.27 47.53 -21.53 49.09 -18.69 50.6 -15.81 52.05 -12.84 53.4 -9.81 54.69 -6.73 55.92 -3.59 57.05 -0.39 -2.56 119.32 -50.25 0.35 -48.96 3.13 -47.65 5.87 -46.32 8.51 -44.97 11.1 -43.6 13.61 -42.19 16.07 -40.79 18.47 -39.34 20.83 -37.88 23.12 -36.39 25.38 -34.85 27.58 -33.31 29.75 -31.71 31.86 -30.07 33.94 -28.38 35.98 -26.64 37.95 -24.88 39.9 -23.03 41.78 -21.15 43.61 -19.21 45.42 -17.22 47.15 -15.18 48.81 -13.06 50.45 -10.91 52.02 -8.7 53.52 -6.43 54.96 -4.12 56.35 -1.72 57.68 0.69 58.95 3.18 60.15 5.71 61.3 0.08 0.74zm-0.08 -0.74c3.7,32.75 -19.98,62.3 -52.89,65.98 -32.91,3.68 -62.61,-19.87 -66.31,-52.62l119.2 -13.36zm821.43 1018.68l-1.64 119.34 -46.12 -2.26 -45.57 -5.43 -44.91 -8.51 -44.16 -11.45 -43.36 -14.3 -42.47 -17.01 -41.56 -19.61 -40.59 -22.1 -39.57 -24.47 -38.53 -26.73 -37.45 -28.91 -36.32 -30.95 -35.18 -32.91 -34 -34.78 -32.79 -36.55 -31.54 -38.23 -30.28 -39.82 -28.95 -41.34 -27.61 -42.76 -26.23 -44.1 -24.8 -45.34 -23.34 -46.53 -21.83 -47.6 -20.29 -48.61 -18.71 -49.52 -17.08 -50.38 -15.42 -51.12 -13.69 -51.8 -11.94 -52.39 -10.13 -52.9 -8.28 -53.32 -6.37 -53.67 119.36 -11.88 5.87 49.43 7.64 49.16 9.35 48.82 11.02 48.37 12.65 47.86 14.24 47.22 15.78 46.52 17.27 45.72 18.71 44.83 20.11 43.84 21.46 42.77 22.76 41.62 23.99 40.36 25.21 39.02 26.33 37.6 27.42 36.08 28.46 34.49 29.43 32.81 30.34 31.04 31.2 29.19 32 27.27 32.75 25.27 33.43 23.19 34.05 21.07 34.63 18.86 35.16 16.59 35.65 14.29 36.08 11.9 36.5 9.47 36.89 6.99 37.29 4.45 37.68 1.84zm0 0c33.12,0.45 59.61,27.54 59.16,60.49 -0.45,32.95 -27.68,59.3 -60.8,58.85l1.64 -119.34zm-452.51 -73.28c-3.1,-32.81 21.12,-61.92 54.1,-65.01 32.98,-3.09 62.24,21 65.34,53.81l-119.44 11.2zm-222.11 274.51l-2.62 -119.32 6.95 0.25 17.29 1.4 16.53 0.89 15.76 0.41 14.95 -0.09 14.15 -0.56 13.37 -1.02 12.55 -1.45 11.72 -1.85 10.89 -2.25 10.07 -2.58 9.23 -2.91 8.48 -3.2 7.68 -3.45 6.94 -3.67 6.3 -3.9 5.63 -4.06 5.1 -4.29 4.64 -4.53 4.21 -4.8 3.84 -5.12 3.52 -5.53 3.23 -6.03 2.93 -6.54 2.62 -7.2 2.3 -7.84 1.92 -8.51 1.52 -9.27 1.09 -10 0.61 -10.76 0.11 -11.5 -0.42 -12.25 -0.98 -12.98 119.44 -11.2 1.32 17.64 0.6 17.27 -0.17 16.94 -0.95 16.6 -1.77 16.26 -2.62 15.91 -3.52 15.59 -4.44 15.16 -5.4 14.74 -6.37 14.28 -7.37 13.73 -8.36 13.13 -9.34 12.46 -10.27 11.7 -11.12 10.87 -11.94 10.05 -12.71 9.16 -13.34 8.26 -13.98 7.39 -14.54 6.53 -15.02 5.68 -15.55 4.91 -16.03 4.12 -16.47 3.39 -16.96 2.69 -17.39 2.01 -17.89 1.36 -18.37 0.74 -18.89 0.11 -19.36 -0.49 -19.87 -1.07 -20.41 -1.66 6.95 0.25zm-6.95 -0.25c-32.98,-3.09 -57.19,-32.21 -54.08,-65.02 3.11,-32.81 32.38,-56.89 65.36,-53.8l-11.28 118.82zm-864.63 850.51l-118.36 -19.44 10.07 -55.96 11.38 -54.37 12.7 -52.73 14.02 -51.12 15.34 -49.51 16.7 -47.9 18.05 -46.27 19.41 -44.65 20.79 -43.01 22.17 -41.37 23.56 -39.71 24.95 -38.04 26.36 -36.34 27.77 -34.64 29.16 -32.91 30.57 -31.16 31.94 -29.38 33.32 -27.59 34.68 -25.78 36 -23.94 37.32 -22.11 38.6 -20.26 39.88 -18.4 41.1 -16.54 42.32 -14.7 43.54 -12.85 44.7 -11.01 45.89 -9.19 47.04 -7.37 48.19 -5.56 49.32 -3.77 50.48 -2 2.62 119.32 -46.14 1.82 -44.8 3.43 -43.45 5.02 -42.12 6.59 -40.79 8.17 -39.48 9.73 -38.18 11.27 -36.88 12.8 -35.64 14.34 -34.36 15.86 -33.16 17.4 -31.96 18.93 -30.78 20.48 -29.64 22.02 -28.5 23.59 -27.38 25.2 -26.29 26.8 -25.2 28.43 -24.11 30.08 -23.02 31.76 -21.95 33.44 -20.86 35.17 -19.77 36.89 -18.67 38.63 -17.55 40.37 -16.43 42.13 -15.3 43.9 -14.16 45.65 -13 47.44 -11.84 49.21 -10.68 50.97 -9.49 52.74zm0 0c-5.39,32.51 -36.27,54.52 -68.95,49.16 -32.68,-5.36 -54.8,-36.09 -49.41,-68.6l118.36 19.44z"/>
    </g>
   </g>
  </g>
  <path class="fil5 str2" d="M4571.99 6011.32c1169,0 2116.67,947.67 2116.67,2116.67 0,1169 -947.67,2116.67 -2116.67,2116.67 -1169,0 -2116.67,-947.67 -2116.67,-2116.67 0,-1169 947.67,-2116.67 2116.67,-2116.67z"/>
  <g id="_3165021089728">
   <polyline class="fil5 str3" points="6716.68,7237.32 6716.68,5980.31 5459.71,5987.72 "/>
   <polyline class="fil5 str2" points="2427.3,7237.32 2427.3,5980.31 3684.27,5987.72 "/>
   <polyline class="fil5 str3" points="6716.68,9018.67 6716.68,10275.67 5459.71,10268.27 "/>
   <polyline class="fil5 str2" points="2427.3,9018.67 2427.3,10275.67 3684.27,10268.27 "/>
  </g>
  <line class="fil5 str2" x1="1839.27" y1="8127.99" x2="7304.7" y2= "8127.99" />
  <g>
   <path class="fil7" d="M5439.5 9894.69c22.34,19.42 24.25,13.91 48.22,-12.45 470.52,-475.76 988.89,-918.71 1595.6,-1369.68 199.3,-143.34 372.52,41.74 224.03,207.72 -692.14,602.01 -1201.34,1269.64 -1582.67,1983.18 -141.5,284.14 -294.23,348.69 -502.15,11.04 -360.3,-676.43 -530.74,-1019.55 -530.74,-1019.55 -146.8,-342.42 118.58,-407.27 299.63,-223.7 163.2,146.21 305.3,282.27 448.08,423.44z"/>
   <path id="_1_1" class="fil8" d="M5461.1 9855.86l53.24 52.76 1.08 -1.14 -4.16 4.61 -3.82 4.23 -1.93 2.12 -1.89 2.04 -1.89 2 -2 2.05 -2.06 2.01 -2.11 1.97 -2.48 2.17 -2.72 2.15 -2.96 2.11 -3.47 2.16 -3.87 2.01 -4.38 1.81 -4.89 1.48 -5.42 1.01 -5.44 0.38 -5.34 -0.23 -5.22 -0.8 -4.73 -1.23 -4.23 -1.51 -3.67 -1.64 -3.41 -1.78 -3.18 -1.9 -2.76 -1.84 -2.62 -1.87 -2.56 -1.94 -2.46 -1.97 -2.39 -2 -2.42 -2.08 49.12 -56.62 1.66 1.42 1.45 1.2 1.18 0.95 0.88 0.68 0.66 0.47 0.34 0.22 -0.22 -0.12 -0.57 -0.3 -0.95 -0.42 -1.61 -0.57 -2.21 -0.57 -2.76 -0.42 -2.92 -0.13 -3.06 0.22 -3.08 0.57 -2.53 0.76 -2.02 0.83 -1.49 0.77 -1.05 0.66 -0.48 0.33 -0.16 0.13 0.14 -0.13 0.63 -0.59 0.8 -0.79 1 -1.03 1.25 -1.32 1.43 -1.54 1.55 -1.7 3.76 -4.17 4.34 -4.79 1.08 -1.14zm-1.08 1.14c13.92,-15.31 37.63,-16.42 52.92,-2.49 15.29,13.93 16.4,37.66 2.48,52.97l-55.4 -50.48zm1601.44 -1374.9l43.72 60.92 0.47 -0.35 -56.5 42.17 -55.99 42.12 -55.49 42.1 -54.99 42.07 -54.51 42.05 -54.01 42.03 -53.56 42.04 -53.07 42.03 -52.62 42.05 -52.17 42.06 -51.72 42.09 -51.29 42.12 -50.85 42.17 -50.43 42.21 -50.02 42.28 -49.61 42.32 -49.21 42.4 -48.82 42.49 -48.43 42.56 -48.05 42.66 -47.69 42.76 -47.32 42.87 -46.97 42.99 -46.63 43.1 -46.28 43.25 -45.95 43.38 -45.61 43.51 -45.31 43.68 -45 43.84 -44.7 44.01 -44.4 44.17 -44.11 44.37 -53.24 -52.76 44.39 -44.65 44.68 -44.47 44.98 -44.29 45.28 -44.1 45.59 -43.96 45.91 -43.79 46.23 -43.64 46.56 -43.51 46.91 -43.36 47.25 -43.25 47.6 -43.13 47.97 -43 48.33 -42.92 48.71 -42.8 49.1 -42.73 49.49 -42.64 49.89 -42.56 50.28 -42.5 50.71 -42.43 51.11 -42.39 51.55 -42.34 51.98 -42.31 52.43 -42.28 52.88 -42.25 53.33 -42.23 53.8 -42.24 54.27 -42.23 54.75 -42.23 55.23 -42.25 55.73 -42.28 56.23 -42.3 56.74 -42.35 0.47 -0.35zm-0.47 0.35c16.61,-12.34 40.08,-8.87 52.41,7.75 12.33,16.62 8.86,40.13 -7.75,52.47l-44.66 -60.22zm270.93 266.14l-49.14 -56.62 -3.34 3.29 11.26 -13.53 9.48 -13.3 7.82 -13.04 6.25 -12.7 4.79 -12.32 3.41 -11.89 2.16 -11.43 0.98 -10.92 -0.11 -10.44 -1.12 -9.93 -2.06 -9.41 -2.94 -8.92 -3.78 -8.38 -4.61 -7.87 -5.38 -7.32 -6.16 -6.75 -6.91 -6.17 -7.66 -5.52 -8.41 -4.85 -9.14 -4.11 -9.88 -3.31 -10.6 -2.46 -11.32 -1.51 -12.01 -0.48 -12.71 0.63 -13.37 1.85 -14.03 3.14 -14.61 4.54 -15.18 6.05 -15.69 7.65 -16.15 9.32 -16.58 11.14 -43.72 -60.92 20.62 -13.84 20.63 -11.92 20.57 -10.01 20.46 -8.15 20.27 -6.3 20.03 -4.5 19.71 -2.71 19.33 -0.97 18.83 0.76 18.26 2.43 17.58 4.06 16.82 5.65 15.94 7.17 14.97 8.63 13.9 10.02 12.71 11.33 11.42 12.53 10.06 13.68 8.57 14.67 7.04 15.58 5.4 16.36 3.72 17.03 1.96 17.57 0.19 17.98 -1.64 18.3 -3.48 18.45 -5.33 18.53 -7.19 18.52 -9.07 18.42 -10.94 18.24 -12.82 18 -14.72 17.69 -3.34 3.29zm3.34 -3.29c-13.8,15.43 -37.49,16.73 -52.9,2.92 -15.41,-13.81 -16.72,-37.53 -2.92,-52.96l55.82 50.04zm-1577.05 1974.89l-67.06 -33.46 0.5 -0.96 36.31 -67.1 37.08 -66.84 37.85 -66.56 38.64 -66.27 39.42 -66 40.25 -65.7 41.05 -65.42 41.87 -65.13 42.72 -64.83 43.56 -64.52 44.41 -64.22 45.29 -63.91 46.15 -63.59 47.03 -63.29 47.95 -62.96 48.83 -62.63 49.76 -62.31 50.68 -61.96 51.62 -61.64 52.57 -61.29 53.51 -60.96 54.48 -60.6 55.46 -60.25 56.45 -59.9 57.43 -59.54 58.44 -59.17 59.47 -58.81 60.48 -58.43 61.51 -58.06 62.56 -57.69 63.62 -57.3 64.68 -56.92 49.14 56.62 -64.02 56.34 -62.98 56.72 -61.92 57.09 -60.87 57.46 -59.86 57.83 -58.83 58.19 -57.82 58.55 -56.83 58.9 -55.85 59.26 -54.86 59.61 -53.9 59.94 -52.93 60.3 -51.99 60.63 -51.06 60.96 -50.12 61.3 -49.22 61.63 -48.31 61.95 -47.41 62.26 -46.53 62.59 -45.65 62.91 -44.79 63.21 -43.93 63.52 -43.08 63.82 -42.26 64.13 -41.43 64.43 -40.61 64.72 -39.81 65.02 -39.02 65.28 -38.22 65.59 -37.47 65.86 -36.68 66.14 -35.95 66.42 0.5 -0.96zm-0.5 0.96c-9.75,18.26 -32.46,25.14 -50.7,15.38 -18.24,-9.76 -25.11,-32.5 -15.36,-50.76l66.06 35.38zm-568.24 10.99l66.12 -35.28 -1.17 -2.04 18.78 29.62 18.39 27.21 17.96 24.84 17.52 22.48 17.08 20.16 16.59 17.87 16.08 15.61 15.53 13.39 14.92 11.25 14.29 9.18 13.6 7.2 12.91 5.37 12.25 3.66 11.68 2.13 11.24 0.72 10.98 -0.61 10.97 -1.93 11.07 -3.29 11.31 -4.73 11.6 -6.26 11.9 -7.88 12.17 -9.54 12.4 -11.23 12.56 -12.91 12.72 -14.58 12.79 -16.21 12.86 -17.83 12.9 -19.39 12.92 -20.92 12.93 -22.4 12.92 -23.83 12.91 -25.24 67.06 33.46 -13.69 26.74 -13.82 25.51 -13.99 24.22 -14.16 22.94 -14.4 21.63 -14.64 20.29 -14.93 18.91 -15.26 17.52 -15.66 16.07 -16.12 14.59 -16.63 13.02 -17.2 11.38 -17.84 9.62 -18.47 7.71 -19.05 5.63 -19.55 3.43 -19.9 1.11 -20.06 -1.28 -20.06 -3.65 -19.91 -5.96 -19.69 -8.17 -19.48 -10.3 -19.29 -12.38 -19.14 -14.41 -19.07 -16.45 -19.04 -18.49 -19.07 -20.53 -19.16 -22.62 -19.3 -24.74 -19.46 -26.9 -19.65 -29.11 -19.88 -31.34 -1.17 -2.04zm1.17 2.04c-10.85,-17.62 -5.38,-40.74 12.23,-51.6 17.61,-10.86 40.7,-5.38 51.55,12.24l-63.78 39.36zm-533.28 -1024.44l68.86 -29.58 -0.88 -1.91 1.95 3.94 6.02 12 4.51 9.01 5.53 11 6.55 12.99 7.58 15.01 8.6 16.99 9.63 18.98 10.67 20.99 11.71 22.98 12.74 24.95 13.79 26.95 14.84 28.94 15.89 30.91 16.95 32.9 18 34.88 19.08 36.86 20.13 38.83 21.21 40.81 22.27 42.78 23.36 44.75 24.43 46.72 25.53 48.68 26.6 50.66 27.7 52.61 28.79 54.58 29.9 56.55 30.98 58.5 32.1 60.44 33.21 62.42 -66.12 35.28 -33.23 -62.46 -32.14 -60.52 -31.02 -58.56 -29.92 -56.59 -28.83 -54.64 -27.72 -52.67 -26.64 -50.72 -25.55 -48.74 -24.47 -46.78 -23.38 -44.81 -22.31 -42.84 -21.23 -40.87 -20.17 -38.89 -19.1 -36.92 -18.04 -34.94 -16.97 -32.96 -15.93 -30.97 -14.86 -29 -13.83 -26.99 -12.78 -25.03 -11.73 -23.04 -10.69 -21.03 -9.67 -19.04 -8.64 -17.07 -7.6 -15.05 -6.59 -13.07 -5.55 -11.06 -4.55 -9.05 -6.04 -12.08 -2.05 -4.1 -0.88 -1.91zm0.88 1.91c-9.21,-18.54 -1.65,-41.06 16.87,-50.28 18.52,-9.22 41.02,-1.66 50.23,16.88l-67.1 33.4zm358.16 -268.34l-49.96 55.88 -1.68 -1.59 -15.67 -15.01 -15.95 -13.61 -16.14 -12.2 -16.26 -10.83 -16.24 -9.43 -16.14 -8.04 -15.91 -6.65 -15.61 -5.29 -15.18 -3.95 -14.63 -2.62 -13.98 -1.33 -13.22 -0.1 -12.42 1.09 -11.5 2.18 -10.57 3.23 -9.64 4.21 -8.74 5.16 -7.91 6.14 -7.14 7.19 -6.41 8.39 -5.67 9.74 -4.84 11.27 -3.89 12.93 -2.76 14.73 -1.48 16.61 -0.02 18.47 1.63 20.38 3.43 22.27 5.36 24.14 7.43 26 9.61 27.83 11.92 29.66 -68.86 29.58 -13.22 -32.92 -10.89 -31.51 -8.59 -30.1 -6.38 -28.74 -4.21 -27.41 -2.09 -26.1 0.02 -24.81 2.1 -23.51 4.18 -22.21 6.27 -20.85 8.32 -19.37 10.33 -17.76 12.23 -15.99 13.96 -14.07 15.47 -12.02 16.76 -9.92 17.78 -7.77 18.59 -5.69 19.2 -3.66 19.68 -1.73 20.06 0.14 20.3 1.93 20.49 3.66 20.6 5.35 20.63 6.99 20.61 8.61 20.48 10.22 20.3 11.77 20.04 13.35 19.7 14.9 19.25 16.43 18.75 17.95 -1.68 -1.59zm1.68 1.59c14.53,14.74 14.38,38.49 -0.34,53.04 -14.72,14.55 -38.45,14.4 -52.98,-0.34l53.32 -52.7zm445.98 421.48l-49.12 56.62 -1.77 -1.63 -13.35 -13.19 -13.36 -13.16 -13.37 -13.15 -13.36 -13.12 -13.37 -13.09 -13.4 -13.08 -13.41 -13.07 -13.43 -13.06 -13.46 -13.04 -13.48 -13.04 -13.54 -13.04 -13.56 -13.04 -13.61 -13.03 -13.65 -13.05 -13.7 -13.05 -13.76 -13.07 -13.83 -13.08 -13.87 -13.1 -13.96 -13.12 -14.01 -13.13 -14.1 -13.17 -14.18 -13.19 -14.25 -13.22 -14.35 -13.27 -14.43 -13.29 -14.53 -13.33 -14.63 -13.38 -14.74 -13.42 -14.84 -13.47 -14.95 -13.52 -15.07 -13.57 -15.18 -13.64 49.96 -55.88 15.3 13.72 15.17 13.67 15.05 13.62 14.94 13.55 14.84 13.52 14.73 13.46 14.63 13.43 14.53 13.39 14.45 13.35 14.35 13.3 14.26 13.29 14.2 13.25 14.11 13.23 14.04 13.2 13.97 13.18 13.91 13.16 13.84 13.15 13.8 13.13 13.73 13.13 13.69 13.11 13.64 13.12 13.6 13.1 13.58 13.12 13.52 13.12 13.51 13.12 13.47 13.13 13.46 13.14 13.45 13.17 13.42 13.18 13.41 13.19 13.42 13.22 13.41 13.25 -1.77 -1.63zm1.77 1.63c14.71,14.55 14.86,38.3 0.32,53.03 -14.54,14.73 -38.27,14.88 -52.98,0.33l52.66 -53.36z"/>
  </g>
 </g>
</svg>
