<?xml version="1.0" encoding="UTF-8"?>
<!DOCTYPE svg PUBLIC "-//W3C//DTD SVG 1.1//EN" "http://www.w3.org/Graphics/SVG/1.1/DTD/svg11.dtd">
<!-- Creator: CorelDRAW -->
<svg xmlns="http://www.w3.org/2000/svg" xml:space="preserve" width="1080px" height="1920px" version="1.1" style="shape-rendering:geometricPrecision; text-rendering:geometricPrecision; image-rendering:optimizeQuality; fill-rule:evenodd; clip-rule:evenodd"
viewBox="0 0 1080 1920"
 xmlns:xlink="http://www.w3.org/1999/xlink"
 xmlns:xodm="http://www.corel.com/coreldraw/odm/2003">
 <defs>
  <style type="text/css">
   <![CDATA[
    .fil0 {fill:#3775B5;fill-rule:nonzero}
   ]]>
  </style>
 </defs>
 <g id="Capa_x0020_1">
  <metadata id="CorelCorpID_0Corel-Layer"/>
  <g id="_3165256651152">
   <g>
    <path class="fil0" d="M599.9 809.16c-80.65,0 -146.04,62.92 -146.04,140.57 0,16.55 3.12,32.35 8.61,47.1 -1.12,-6.28 -1.82,-12.67 -1.82,-19.25 0,-61.51 49.86,-111.38 111.41,-111.38 61.52,0 111.36,49.87 111.36,111.38 0,59.36 -46.44,107.73 -104.96,111.07 7.03,1.01 14.13,1.67 21.44,1.67 80.64,0 146.03,-62.92 146.03,-140.59 0,-77.65 -65.39,-140.57 -146.03,-140.57z"/>
    <path class="fil0" d="M385.97 945.56c0,-111.45 90.84,-201.8 202.92,-201.8 112.07,0 202.97,90.35 202.97,201.8 0,19.76 -2.96,38.86 -8.26,56.92 13.17,-31.23 20.48,-65.5 20.48,-101.48 0,-145.02 -118.23,-262.59 -264.08,-262.59 -145.85,0 -264.08,117.57 -264.08,262.59 0,145.03 118.23,262.58 264.08,262.58 44.14,0 85.69,-10.83 122.26,-29.87 -22.72,8.81 -47.49,13.67 -73.37,13.67 -112.08,0 -202.92,-90.36 -202.92,-201.82z"/>
    <path class="fil0" d="M623.75 983.79c0,-27.01 -21.89,-48.9 -48.9,-48.9 -27.03,0 -48.89,21.89 -48.89,48.9 0,27 21.86,48.91 48.89,48.91 27.01,0 48.9,-21.91 48.9,-48.91z"/>
   </g>
   <path class="fil0" d="M790.25 1210.16c-4.18,0 -8.04,1.03 -11.56,3.1 -3.54,2.04 -6.34,4.93 -8.43,8.63 -2.1,3.71 -3.12,7.63 -3.12,11.78 0,4.1 1.04,8.03 3.15,11.76 2.08,3.76 4.92,6.67 8.49,8.76 3.54,2.08 7.35,3.12 11.41,3.12 4.11,0 8.01,-1.03 11.66,-3.1 3.66,-2.06 6.49,-4.86 8.5,-8.4 1.97,-3.53 2.97,-7.51 2.97,-11.93 0,-6.74 -2.24,-12.38 -6.69,-16.91 -4.42,-4.55 -9.91,-6.81 -16.38,-6.81zm29.98 -5.72l0 58.3 -7.4 0 0 -10.02c-3.14,3.82 -6.69,6.69 -10.59,8.62 -3.93,1.93 -8.18,2.9 -12.82,2.9 -8.25,0 -15.3,-3 -21.16,-8.99 -5.82,-5.97 -8.74,-13.26 -8.74,-21.83 0,-8.39 2.95,-15.58 8.83,-21.54 5.9,-5.96 12.98,-8.94 21.28,-8.94 4.79,0 9.12,1.01 12.98,3.05 3.87,2.04 7.29,5.09 10.22,9.15l0 -10.7 7.4 0zm-81.21 0l7.52 0 0 58.3 -7.52 0 0 -58.3zm3.75 -24.01c1.69,0 3.16,0.61 4.38,1.83 1.19,1.21 1.8,2.68 1.8,4.39 0,1.68 -0.61,3.12 -1.8,4.33 -1.22,1.22 -2.69,1.83 -4.38,1.83 -1.7,0 -3.12,-0.61 -4.34,-1.83 -1.18,-1.21 -1.81,-2.65 -1.81,-4.33 0,-1.71 0.63,-3.18 1.81,-4.39 1.22,-1.22 2.64,-1.83 4.34,-1.83zm-33.22 2.35l7.5 0 0 21.66 11.88 0 0 6.49 -11.88 0 0 51.81 -7.5 0 0 -51.81 -10.25 0 0 -6.49 10.25 0 0 -21.66zm-53.39 27.38c-4.19,0 -8.05,1.03 -11.57,3.1 -3.55,2.04 -6.34,4.93 -8.43,8.63 -2.1,3.71 -3.12,7.63 -3.12,11.78 0,4.1 1.03,8.03 3.16,11.76 2.08,3.76 4.91,6.67 8.47,8.76 3.55,2.08 7.36,3.12 11.43,3.12 4.11,0 7.99,-1.03 11.65,-3.1 3.66,-2.06 6.51,-4.86 8.48,-8.4 1.99,-3.53 2.99,-7.51 2.99,-11.93 0,-6.74 -2.23,-12.38 -6.66,-16.91 -4.45,-4.55 -9.93,-6.81 -16.4,-6.81zm29.96 -5.72l0 58.3 -7.4 0 0 -10.02c-3.13,3.82 -6.67,6.69 -10.57,8.62 -3.9,1.93 -8.2,2.9 -12.83,2.9 -8.25,0 -15.31,-3 -21.15,-8.99 -5.83,-5.97 -8.75,-13.26 -8.75,-21.83 0,-8.39 2.94,-15.58 8.83,-21.54 5.9,-5.96 12.98,-8.94 21.28,-8.94 4.79,0 9.12,1.01 13,3.05 3.87,2.04 7.27,5.09 10.19,9.15l0 -10.7 7.4 0zm-111.95 20.36l0 30.21 9.79 0c5.75,0 9.99,-0.55 12.67,-1.68 2.65,-1.13 4.83,-2.88 6.45,-5.28 1.63,-2.4 2.46,-4.98 2.46,-7.77 0,-3.5 -1.16,-6.55 -3.46,-9.16 -2.26,-2.61 -5.42,-4.4 -9.44,-5.36 -2.65,-0.64 -7.34,-0.96 -14.01,-0.96l-4.46 0zm0 -33.17l0 25.24 4.53 0c5.45,0 9.49,-0.52 12.09,-1.53 2.57,-1.02 4.6,-2.63 6.1,-4.82 1.51,-2.21 2.27,-4.64 2.27,-7.33 0,-3.59 -1.26,-6.42 -3.8,-8.48 -2.51,-2.05 -6.55,-3.08 -12.05,-3.08l-9.14 0zm-7.71 -7.71l15.53 0c6.26,0 11.09,0.74 14.42,2.23 3.38,1.47 6.01,3.74 7.97,6.82 1.94,3.07 2.93,6.49 2.93,10.22 0,3.51 -0.87,6.71 -2.57,9.58 -1.71,2.87 -4.21,5.2 -7.54,6.99 4.13,1.39 7.27,3.03 9.46,4.9 2.21,1.88 3.93,4.15 5.17,6.81 1.23,2.66 1.85,5.54 1.85,8.65 0,6.32 -2.33,11.68 -6.96,16.05 -4.61,4.37 -10.83,6.57 -18.61,6.57l-21.65 0 0 -78.82zm-41.55 32.44c-5.51,0 -10.26,2.03 -14.22,6.11 -3.95,4.07 -5.96,9 -5.96,14.78 0,3.72 0.92,7.2 2.71,10.42 1.83,3.22 4.26,5.71 7.34,7.45 3.08,1.76 6.44,2.64 10.13,2.64 3.67,0 7.05,-0.88 10.12,-2.64 3.05,-1.74 5.51,-4.23 7.32,-7.45 1.82,-3.22 2.69,-6.7 2.69,-10.42 0,-5.78 -1.97,-10.71 -5.96,-14.78 -3.96,-4.08 -8.7,-6.11 -14.17,-6.11zm-19.76 2.17c5.23,-5.76 11.8,-8.65 19.78,-8.65 7.95,0 14.5,2.86 19.73,8.61 4.74,5.25 7.13,11.44 7.13,18.61 0,7.21 -2.5,13.5 -7.53,18.88 -5,5.39 -11.47,8.07 -19.33,8.07 -7.91,0 -14.38,-2.68 -19.38,-8.07 -5.03,-5.38 -7.53,-11.67 -7.53,-18.88 0,-7.13 2.38,-13.32 7.13,-18.57zm-44.18 -2.26c-5.73,0 -10.56,2 -14.47,6 -3.94,4.01 -5.89,9 -5.89,14.95 0,3.91 0.88,7.44 2.62,10.55 1.75,3.13 4.24,5.61 7.51,7.43 3.27,1.83 6.71,2.75 10.35,2.75 3.56,0 6.9,-0.92 10.02,-2.77 3.15,-1.85 5.64,-4.43 7.51,-7.73 1.85,-3.31 2.77,-6.79 2.77,-10.42 0,-3.65 -0.92,-7.13 -2.76,-10.41 -1.84,-3.27 -4.33,-5.82 -7.45,-7.63 -3.11,-1.83 -6.51,-2.72 -10.21,-2.72zm-26.5 -5.08l6.61 0 0 9.48c2.63,-3.6 5.64,-6.3 9.03,-8.1 3.43,-1.81 7.23,-2.69 11.42,-2.69 7.33,0 13.59,2.62 18.77,7.9 5.21,5.27 7.83,11.63 7.83,19.05 0,7.57 -2.59,14.01 -7.75,19.29 -5.16,5.3 -11.37,7.93 -18.66,7.93 -4.11,0 -7.87,-0.85 -11.31,-2.56 -3.44,-1.7 -6.55,-4.23 -9.33,-7.62l0 27.72 -6.61 0 0 -70.4zm-59.91 0l6.63 0 0 24.07c0,5.87 0.3,9.91 0.94,12.12 0.94,3.16 2.74,5.66 5.43,7.5 2.66,1.83 5.85,2.74 9.56,2.74 3.7,0 6.83,-0.9 9.4,-2.68 2.6,-1.79 4.36,-4.13 5.35,-7.04 0.66,-1.99 0.99,-6.2 0.99,-12.64l0 -24.07 6.78 0 0 25.3c0,7.11 -0.85,12.46 -2.48,16.06 -1.66,3.6 -4.16,6.42 -7.5,8.44 -3.33,2.05 -7.51,3.06 -12.51,3.06 -5.04,0 -9.23,-1.01 -12.58,-3.06 -3.38,-2.02 -5.89,-4.87 -7.55,-8.52 -1.66,-3.64 -2.46,-9.13 -2.46,-16.46l0 -24.82zm-30.86 0l6.77 0 0 7.53c2.04,-2.97 4.15,-5.18 6.39,-6.65 2.25,-1.47 4.58,-2.19 7.01,-2.19 1.85,0 3.79,0.58 5.88,1.74l-3.45 5.59c-1.4,-0.59 -2.57,-0.9 -3.51,-0.9 -2.22,0 -4.34,0.9 -6.39,2.72 -2.05,1.82 -3.63,4.64 -4.68,8.46 -0.84,2.94 -1.25,8.88 -1.25,17.82l0 17.43 -6.77 0 0 -51.55zm-13.78 -6.45l-5.39 5.14c-3.89,-3.83 -8.16,-6.73 -12.78,-8.7 -4.62,-1.98 -9.11,-2.96 -13.52,-2.96 -5.47,0 -10.67,1.34 -15.62,4.03 -4.94,2.67 -8.76,6.32 -11.49,10.92 -2.69,4.58 -4.05,9.44 -4.05,14.56 0,5.25 1.41,10.23 4.21,14.94 2.81,4.72 6.67,8.44 11.65,11.13 4.97,2.7 10.39,4.05 16.31,4.05 7.15,0 13.22,-2.01 18.16,-6.05 4.98,-4.05 7.92,-9.3 8.83,-15.73l-22.23 0 0 -6.73 30.04 0c-0.07,10.76 -3.27,19.32 -9.59,25.64 -6.35,6.34 -14.8,9.51 -25.4,9.51 -12.9,0 -23.1,-4.4 -30.62,-13.17 -5.78,-6.77 -8.66,-14.58 -8.66,-23.46 0,-6.59 1.65,-12.73 4.97,-18.41 3.33,-5.69 7.87,-10.13 13.65,-13.34 5.76,-3.21 12.3,-4.8 19.6,-4.8 5.92,0 11.48,1.07 16.69,3.19 5.2,2.13 10.28,5.55 15.24,10.24z"/>
  </g>
 </g>
</svg>
